<?xml version="1.0" encoding="utf-8"?>
<!-- Generator: Adobe Illustrator 22.0.1, SVG Export Plug-In . SVG Version: 6.00 Build 0)  -->
<svg version="1.1" id="Lager_1" xmlns="http://www.w3.org/2000/svg" xmlns:xlink="http://www.w3.org/1999/xlink" x="0px" y="0px"
	 viewBox="0 0 133.6 133.3" style="enable-background:new 0 0 133.6 133.3;" xml:space="preserve">
<style type="text/css">
	.st0{fill:#FFFFFF;}
	.st1{fill:none;stroke:#000000;stroke-width:2;stroke-linecap:round;stroke-linejoin:round;stroke-miterlimit:10;}
</style>
<g>
	<path class="st0" d="M67.6,0c37.3,0.8,66.6,30.7,65.9,66.9c-0.7,37.2-31.8,68.3-70.9,66.3c-30.7-1.6-64-29-62.6-69.4
		C1.4,28.2,31.7-0.8,67.6,0z M33,41.4c-0.4-1.8-0.6-3.5-1.2-5c-0.5-1.1-1.1-2.5-2.8-0.8c-4.4,4.1-6.1,4-10.7,0
		c-4.7-4.2-5-4.2-7.6,1.2C0,58.9,0.3,80.9,14.1,101.3c14.3,21.2,34.8,30.9,60.5,28.2c13.7-1.5,25.4-7.5,35.5-16.8
		c3-2.8,1-6.3,2.3-9.1c-2.5-0.3-4.9-1.9-7.6-1.1c-2.5,0.8-5,1.7-7.6,2.4c-3.8,1.1-7.6,1.7-10.4-2.1c-0.6-0.8-1.5-1.9-2.4-0.9
		c-2.5,2.7-3.7,0.3-5.2-1c-1.8-1.7-3.1-4.3-5.2-5.3c-6.8-3.1-7.2-8.5-6.3-14.6c0.4-2.5-0.4-4.1-2.1-6.1c-2.3-2.8-5.3-5-7.1-8.1
		c-3.2-5.5-4.1-6-10.4-3.8c-1.7,0.6-3.6,1.9-5.1-0.4c1-1.6,4.3-0.9,3.5-3.1c-0.9-2.4-1.3-4.2,0.6-6.3c0.6-0.6,0.3-1.7-0.7-2
		c-4.9-1.3-9.2-5.3-14.9-3.6c-1.8,0.5-4.4,1.7-5.2-0.8c-0.9-2.7,1.6-4,3.8-4.9C30.9,41.4,31.9,41.5,33,41.4z M130.9,69.9
		c-1.8-13.6-1.3-23.6-10.1-30.7c-5.1-4.1-5.8-11.8-12.9-15.2c-3.4-1.6-5.8-2.6-9.1-1.7c-1.1,0.3-3.1,0.8-2.8-0.5
		c2.1-8.1-2.6-3.2-5-2.7c-1.2,0.3-2.3-0.1-3.4-0.6c-1.5-0.7-3.2-1.5-4.8-0.9c-3.9,1.6-6.6-0.3-9.5-2.5c-3.5-2.7-7.7-1.8-11.2,1
		c-4,3.2-4.9,9.8-11.4,10.1c-0.3,0-0.9,0.7-0.9,1.1c-0.2,5-5.4,8.8-2.3,15c1.6,3.1,0.2,7.4,5.8,4.4c0.4-0.2,1.6,0,1.9,0.3
		c4.1,5.3,10.9,3,16,5.4c2.4,1.2,5.5-0.4,6.2-2.6c1.7-5.3,4-2.1,5.4-0.4c1.8,2.1,3.4,4.6,2,7.7c-0.6,1.4-0.4,3,1.3,3.1
		c2.2,0.1,5.1,1,6.5-1.1c1.3-1.9-1.1-3.1-2.3-4.4c-2.5-2.6-2.3-4.4,1.5-5c1.2-0.2,2.2-0.7,3.2-1c6.6-1.9,10.4,0.7,10.6,7.1
		c0,0.9-0.1,1.6,1.1,1.5c4.8-0.2,2.3,3,2.2,4.9c-0.1,1.4-2.3,2.4-1.7,4c2.5,6.1-0.3,12.8,2.2,18.8c0.5,1.3-0.4,3.1-1.3,2.5
		c-5.2-3.1-7,2.6-10.5,3.8c-1.9,0.6-2.2,2.4-2,4.1c0.2,1.6,0.9,3,2.6,3.3c2,0.4,2.2-1.6,3-2.8c1-1.5,2.7-4.1,3.8-1.8
		c1.2,2.4,3.3,2,4.3,2.9c4.6,4.4,5.6-0.5,6.7-2.6c1.5-2.6,3.3-4.9,5-7.3C125.8,80.8,132.3,75.1,130.9,69.9z M99.3,101.7
		c-7.1-4.5-7-8.3-1.2-13.1c3.7-3.1,10.4-5.5,8.6-11.5c-1.7-5.9,2.5-12.9-3.8-17.7c-0.3-0.2,0-1.3,0.1-1.9c0.8-7.6,0.6-7.9-6.6-5.9
		c-1.6,0.4-3.3-0.8-4.7,0.4c-0.4,1.8,1.4,2.2,1.9,3.2c1.3,2.4,4,5.5,3.3,7.2c-1,2.6-3.6-1.6-6-0.6c-1.3,0.5-2.9,0.5-4.4,0.5
		c-3.2,0.1-5.1-2-4-4.7c1.4-3.4-0.5-5.2-1.9-7.9c-2.5,3.6-6.9,6.2-9.8,4.8c-5.2-2.3-11.6-0.2-16-5c-2.4-2.6-3.6,0.2-4.2,1.9
		c-0.9,2.5-4.9,4.2-2.2,7.7c0.3,0.4,1.3,0.4,1.8,0.3c4.7-1.6,7.5,0.4,9,4.8c0.4,1.3,1.2,2.3,2.3,3.2c5.5,4.5,9.3,9.7,7.6,17.5
		c-0.8,3.8,0.8,6.7,4.8,8.2c4.7,1.8,9.7,3.7,13.1,7.5C91,105,94.6,104.1,99.3,101.7z M101.5,18.8c-2.8-4.4-7.7-6.7-10.6-10.9
		c-0.2-0.3-0.9-0.2-1.4-0.2C85,7.9,80.6,7.8,76.9,4.5c-0.9-0.8-1.7-0.7-2.5,0.3c-2.4,3-5.6,1.6-7.5,0.2c-2.5-1.9-4.9-1.7-7.5-1.4
		C48.2,4.7,37.9,8.5,29.2,15.7c-3.6,3-9.5,4.9-8,11.6c0.1,0.4-0.6,1.2-1.1,1.6c-3.2,3.1-0.3,5.2,1.5,6.8c2.3,2,4.6,1.1,5.9-1.8
		c0.7-1.6,1.9-2.7,3.4-1.2c2.8,2.7,5.1,6.3,5.4,9.8c0.3,3,2,3.6,3.7,4.4c1.8,0.8,4.2,0.5,5.6-0.6c1.7-1.4,0.3-3.1-0.8-4.8
		c-1.1-1.6-1.1-3.7-0.3-5.7c0.7-1.8,2.2-4,1.8-5.5c-1.3-4.3,2.6-6,4.3-6.3c5.2-0.9,6.1-4.2,6.7-8.3c0.2-1.6,0.5-3.3,2.9-3.3
		c4.6-0.1,9.2-0.3,13.7-1.3c1.2-0.3,2.7,0.1,2.3,1.7c-0.8,3,1,3.8,3.1,3.5c2.3-0.3,3.8-1.7,2.9-4.6c-0.8-2.5,1.1-2.3,2.6-1.9
		c3.7,1,7.3,1.9,10.1,5C96.6,16.8,98.7,18.4,101.5,18.8z M128.1,81c-9.3,10.9-14.1,20.4-13.9,26.9C120.5,102.3,126.5,90.9,128.1,81z
		 M116.6,28.4c0.8,3.5,2.9,6.1,5.5,8.2C121.3,33.3,119.5,30.5,116.6,28.4z"/>
	<path d="M33,41.4c-1,0.1-2.1,0-2.9,0.3c-2.2,0.9-4.7,2.2-3.8,4.9c0.9,2.5,3.4,1.3,5.2,0.8c5.7-1.7,10,2.3,14.9,3.6
		c1,0.3,1.3,1.3,0.7,2c-1.9,2-1.5,3.8-0.6,6.3c0.8,2.2-2.5,1.4-3.5,3.1c1.5,2.3,3.5,1,5.1,0.4c6.2-2.1,7.2-1.7,10.4,3.8
		c1.8,3.1,4.9,5.3,7.1,8.1c1.7,2,2.4,3.6,2.1,6.1c-0.9,6.1-0.5,11.5,6.3,14.6c2.1,1,3.4,3.6,5.2,5.3c1.4,1.3,2.7,3.8,5.2,1
		c0.9-1,1.8,0.1,2.4,0.9c2.8,3.8,6.6,3.2,10.4,2.1c2.6-0.7,5.1-1.6,7.6-2.4c2.7-0.8,5.1,0.7,7.6,1.1c-1.3,2.9,0.7,6.4-2.3,9.1
		c-10.1,9.3-21.8,15.3-35.5,16.8c-25.7,2.7-46.3-7-60.5-28.2C0.3,80.7,0,58.7,10.7,36.6c2.6-5.4,2.8-5.3,7.6-1.2
		c4.6,4,6.3,4.1,10.7,0c1.8-1.7,2.4-0.3,2.8,0.8C32.4,37.9,32.5,39.6,33,41.4z"/>
	<path d="M130.9,69.9c1.4,5.2-5.1,11-9.7,17.3c-1.7,2.4-3.6,4.6-5,7.3c-1.2,2.1-2.1,6.9-6.7,2.6c-1-0.9-3-0.5-4.3-2.9
		c-1.2-2.3-2.9,0.4-3.8,1.8c-0.8,1.2-0.9,3.1-3,2.8c-1.7-0.3-2.4-1.7-2.6-3.3c-0.2-1.7,0.1-3.5,2-4.1c3.5-1.2,5.3-6.9,10.5-3.8
		c0.9,0.5,1.8-1.3,1.3-2.5c-2.5-6.1,0.3-12.7-2.2-18.8c-0.7-1.6,1.6-2.5,1.7-4c0.1-1.9,2.7-5.1-2.2-4.9c-1.3,0.1-1.1-0.6-1.1-1.5
		c-0.2-6.4-4-9-10.6-7.1c-1.1,0.3-2,0.8-3.2,1c-3.8,0.6-4,2.4-1.5,5c1.2,1.3,3.6,2.5,2.3,4.4c-1.4,2.1-4.3,1.2-6.5,1.1
		c-1.7,0-1.9-1.7-1.3-3.1c1.4-3.1-0.2-5.7-2-7.7c-1.4-1.7-3.7-4.9-5.4,0.4c-0.7,2.2-3.8,3.8-6.2,2.6c-5.1-2.5-11.9-0.1-16-5.4
		c-0.3-0.4-1.4-0.6-1.9-0.3c-5.7,3.1-4.2-1.3-5.8-4.4c-3.1-6.1,2.1-10,2.3-15c0-0.4,0.6-1.1,0.9-1.1c6.5-0.3,7.4-7,11.4-10.1
		c3.5-2.8,7.7-3.6,11.2-1c2.9,2.2,5.6,4.1,9.5,2.5c1.6-0.6,3.3,0.2,4.8,0.9c1.1,0.5,2.1,0.8,3.4,0.6c2.3-0.6,7-5.4,5,2.7
		c-0.3,1.3,1.6,0.8,2.8,0.5c3.3-0.9,5.7,0,9.1,1.7c7.1,3.4,7.8,11.1,12.9,15.2C129.6,46.3,129.1,56.3,130.9,69.9z M60.9,27.3
		c0.2,2.6,1.6,4.7,4.8,4.7c3.1,0.1,8.6-6.3,8.8-9.8c0.3-5.1-4.6-4.7-7.2-6C64.6,14.9,60.9,21.2,60.9,27.3z"/>
	<path d="M99.3,101.7c-4.7,2.3-8.4,3.2-12.1-1.1c-3.3-3.9-8.3-5.7-13.1-7.5c-3.9-1.5-5.6-4.4-4.8-8.2c1.6-7.8-2.1-13-7.6-17.5
		c-1.1-0.9-1.8-1.9-2.3-3.2c-1.5-4.4-4.3-6.4-9-4.8c-0.5,0.2-1.5,0.1-1.8-0.3c-2.7-3.5,1.3-5.2,2.2-7.7c0.6-1.7,1.8-4.5,4.2-1.9
		c4.4,4.8,10.8,2.6,16,5c2.9,1.3,7.2-1.3,9.8-4.8c1.4,2.7,3.3,4.5,1.9,7.9c-1.1,2.7,0.7,4.8,4,4.7c1.5,0,3.1,0.1,4.4-0.5
		c2.4-1,5,3.2,6,0.6c0.7-1.8-2.1-4.8-3.3-7.2c-0.6-1.1-2.4-1.5-1.9-3.2c1.4-1.3,3.1,0,4.7-0.4c7.2-2,7.4-1.7,6.6,5.9
		c-0.1,0.7-0.4,1.7-0.1,1.9c6.2,4.8,2,11.9,3.8,17.7c1.7,6-4.9,8.4-8.6,11.5C92.3,93.4,92.2,97.2,99.3,101.7z"/>
	<path d="M101.5,18.8c-2.8-0.5-4.9-2-6.5-3.9c-2.7-3.1-6.4-4.1-10.1-5c-1.5-0.4-3.4-0.6-2.6,1.9c0.9,2.9-0.6,4.3-2.9,4.6
		c-2.1,0.3-3.9-0.5-3.1-3.5c0.4-1.5-1.1-1.9-2.3-1.7c-4.5,1-9.1,1.2-13.7,1.3c-2.4,0-2.7,1.7-2.9,3.3c-0.6,4.1-1.4,7.4-6.7,8.3
		c-1.7,0.3-5.6,2-4.3,6.3c0.4,1.5-1,3.7-1.8,5.5c-0.8,2-0.8,4.1,0.3,5.7c1.1,1.6,2.5,3.4,0.8,4.8c-1.4,1.2-3.8,1.5-5.6,0.6
		c-1.7-0.8-3.4-1.4-3.7-4.4c-0.4-3.5-2.6-7.2-5.4-9.8c-1.6-1.5-2.7-0.4-3.4,1.2c-1.3,2.9-3.6,3.8-5.9,1.8c-1.8-1.6-4.6-3.8-1.5-6.8
		c0.5-0.4,1.2-1.2,1.1-1.6c-1.5-6.7,4.3-8.7,8-11.6C38,8.7,48.2,4.8,59.5,3.7c2.6-0.3,4.9-0.5,7.5,1.4c1.9,1.4,5.1,2.8,7.5-0.2
		c0.8-1,1.6-1.1,2.5-0.3c3.7,3.2,8.1,3.4,12.6,3.2c0.5,0,1.2,0,1.4,0.2C93.7,12.2,98.6,14.5,101.5,18.8z"/>
	<path d="M128.1,81c-1.6,9.9-7.6,21.4-13.9,26.9C114,101.3,118.8,91.9,128.1,81z"/>
	<path d="M116.6,28.4c2.9,2,4.6,4.8,5.5,8.2C119.5,34.5,117.4,32,116.6,28.4z"/>
	<path class="st0" d="M60.9,27.3c0-6.2,3.7-12.5,6.4-11.1c2.6,1.3,7.5,0.9,7.2,6c-0.2,3.5-5.6,9.9-8.8,9.8
		C62.5,32,61.1,29.9,60.9,27.3z M62.7,26.8c0.1,1.6,0.5,3.2,2.7,3.3c2.1,0.1,7.3-5.6,7.1-7.7C72.2,19.1,69,19,67.2,19
		C62.4,19.2,63.7,23.7,62.7,26.8z"/>
	<path d="M62.7,26.8c0.9-3.1-0.4-7.6,4.5-7.8c1.8-0.1,5,0.1,5.3,3.4c0.2,2.2-5,7.8-7.1,7.7C63.3,30,62.9,28.4,62.7,26.8z"/>
	<path class="st1" d="M77.6,21.2c-1.8-1.7-3.4-3.8-5.5-4.9c-5.2-2.9-10.2-0.7-12.3,5.5c-0.5,1.4-1.2,2.6-1.6,4"/>
	<path class="st1" d="M93.6,101.2c1.8,0.4,3.7,1,5.5,0"/>
	<path class="st1" d="M100.6,18.7c-3.2-2.8-5.9-6.4-9.6-8.3c-3.5-1.7-7.7-4-11.9-0.7"/>
	<path class="st1" d="M128.1,81.2c-4.7,9-9.3,18-14,27"/>
	<path class="st1" d="M99.9,59.7c0.3,0.8,0.5,1.7,0.8,2.5"/>
	<path class="st1" d="M116.6,28.7c1.8,2.8,3.7,5.7,5.5,8.5"/>
	<path class="st1" d="M92.1,51.2c1.1,3.1,4.4,2.6,6.5,4"/>
	<path class="st1" d="M114.1,80.7c-1.9,0.9-3.9,1.2-6,1"/>
	<path class="st1" d="M46.1,30.7c-2.1,0.2-4.1-0.1-6-1"/>
	<path class="st1" d="M104.1,88.2c0.2,2.6-2.1,4.3-3.6,4.8c-2.4,0.8-1.8,2.3-1.9,3.7"/>
	<path class="st1" d="M97.1,19.2c-4.5-0.5-4.7,3.6-6.5,6"/>
	<path class="st1" d="M75.6,4.2c-0.3,4.1,5.2,6.4,3.5,11"/>
	<path class="st1" d="M103.1,63.4c-0.5,0.3-1,0.5-1.5,0.8"/>
</g>
</svg>
