<?xml version="1.0" encoding="utf-8"?>
<!-- Generator: Adobe Illustrator 22.0.1, SVG Export Plug-In . SVG Version: 6.00 Build 0)  -->
<svg version="1.1" id="Lager_1" xmlns="http://www.w3.org/2000/svg" xmlns:xlink="http://www.w3.org/1999/xlink" x="0px" y="0px"
	 viewBox="0 0 134.5 134.4" style="enable-background:new 0 0 134.5 134.4;" xml:space="preserve">
<style type="text/css">
	.st0{fill:#FFFFFF;}
	.st1{fill:none;stroke:#000000;stroke-width:2;stroke-linecap:round;stroke-linejoin:round;stroke-miterlimit:10;}
</style>
<g>
	<path class="st0" d="M67.5,0c37.1,0,67,29.6,67,66.4s-29.6,66.7-64.7,68c-35.6,1.3-70.3-28.5-69.8-68C0.5,29.4,29.9,0,67.5,0z
		 M78.5,73.7c0.7-0.8,1.3-1.4,1.7-2c1.1-1.5,1.9-3.4,4.1-3.1c2.2,0.3,3.3,2.2,3.9,4.2c0.8,2.4,1.2,4.8,1.9,7.2
		c0.6,2.2,0.2,3.7-2.4,4.5c-2.4,0.7-4.7,2.3-4.1,5.3c0.8,4.5,10.3,12,15,12c2.1,0,4.3-0.1,3.9-3.1c-0.8-5.1,1.8-5.3,5.6-4.1
		c2.8,0.9,5.6,1,8.1-0.8c7.6-5.2,10.8-19.9,5.7-27.3c-4.2-6.2-7.9-11.7-4.7-20.1c2.3-6.1-3.5-12.1-8.3-9.7
		c-6.2,3.1-12.7,6-17.6,11.2c-5.5,5.8-12.1,5.4-19,4.3c-1.5-0.2-3-0.7-3-2.7c0.1-2,1-3.5,2.9-4.2c2-0.8,4-0.3,5.8,0.5
		c1.7,0.7,3.5,1.3,5.3,0.7c1.4-0.4,3.1-1,3.2-2.8c0.1-1.6-1.2-2.2-2.5-2.7c-4-1.5-8.1-3-12.5-3.1c-7.2-0.3-14.3-1.3-21.3-2.7
		c-2.5-0.5-6.7-0.6-6.5-3.3c0.2-3.3,4.2-3.6,7.2-3.6c9.2-0.1,18.3,0.1,27.5-0.2c3.4-0.1,8.3,2.3,9.5-3.9c0-0.2,0.9-0.4,1.3-0.5
		c1.1-0.4,3.1,0.5,3.1-1.5c0-1.8-2-2.4-3.3-2.5c-4.1-0.6-8.3-0.5-12.4-1.1c-13.5-2-26.5-2.1-38.7,5.6c-3.4,2.2-5.3,4.3-3.8,8.4
		c0.6,1.7,0.9,3.5,1.3,5.3c1.3,5.6-0.1,7.2-5.7,5.8c-4.6-1.1-8.5-0.4-12.2,2.5c-2.1,1.7-2.2,4.5-4,6.2c-5.3,4.9-6.4,11.5-7.3,18.1
		c-0.7,5.3,0.4,6.4,5.6,5.3c3-0.6,4.6-0.6,2.4,2.9c-1.3,2,0.5,1.9,1.7,2.5c3.3,1.6,6.1,3.9,4.4,8c-2.4,5.7-2.7,5.7,3.3,7
		c1.6,0.4,3.3,0.6,4.9,0.8c8.5,1,16.3,3.2,21.2,11.3c1.5,2.4,4.2,4.1,7.2,4c1.6-0.1,6,3,4.3-2.8c-0.3-1.1,1.2-1.3,2.2-1.4
		c1.4-0.1,2.9-0.3,2.8-2.1c-0.1-3.2,1.1-6.8-1.5-9.6c-3.2-3.4-1.8-5.5,1.8-7.1c1.8-0.8,4.9-1.9,3.8-3.7c-3.3-5.6,1-9.1,3-13.2
		c0.6-1.2,1.3-3.1,3.1-2.8C78.5,70,76.6,72.4,78.5,73.7z M4.2,68.4c0.8-7.8,5.4-13.7,9.3-19.9c3.4-5.4,8.9-8.3,15.2-7
		c5.8,1.2,6,1,4.7-5c-0.5-2.1-1-4.2-1.4-6.3c-0.4-1.7-0.3-3.6,1.1-4.6c4.5-3.3,8.6-7.1,14.5-8.3c13.7-3,27.2-0.6,40.8,0.3
		c1.6,0.1,3.2,1,4.6,1.8c1.3,0.8,2.5,1.9,2.1,3.6c-0.3,1.4-1.4,2.2-3,2.1c-1,0-2.2,0.1-2,1.5c0.4,3-1.9,2.7-3.5,3
		c-1.8,0.3-3.7,0.2-5.5,0.2c-10,0.1-20,0.1-30,0.1c-1.4,0-3.7-0.3-3.9,1.4c-0.3,2.2,2.1,1.4,3.4,1.7c7.2,1.6,14.4,2.5,21.8,2.9
		c4.6,0.3,8.8,1.7,13,3.5c1.8,0.8,3.6,2,3.2,4.5c-0.3,2.3-2.1,3.4-4.1,3.9c-2.5,0.7-4.9,0.5-7.4-0.4c-1.2-0.5-2.5-1-3.9-0.4
		c-0.8,0.3-1.5,0.8-1.6,1.7c-0.1,1,0.6,1.5,1.5,1.6c5.1,0.4,10.7,2,14.7-2.2c5.9-6.1,13.5-9,20.6-13.1c3.7-2.1,6.9-0.6,8.9,2.8
		c1.9,3.2,2.9,7.1,1.5,10.6c-2.3,5.6-0.9,10.2,2.6,14.3c7.5,8.6,5.6,17.5,0.9,26.4c-3.8,7.2-7.1,8.7-15,7.2
		c-2.6-0.5-3.3-0.1-3.1,2.5c0.3,3.5-1.9,4.6-5,4.6c-7.8-0.1-12-5.6-16.2-11.1c-2.5-3.3-2-6.6,1.2-8c6.5-2.8,3.2-6.9,2.3-10.7
		c-0.3-1.3-1-2.7-2.5-2.8c-1.4-0.1-1.7,1.4-2.3,2.3c-1.4,2-2.7,4.8-5.5,1.3c-0.4-0.4-1.3-0.9-1.7-0.1c-1.2,2.8-4.6,5.7-3,8.6
		c2.9,5.2-0.4,6.5-3.8,8.1c-2.2,1-3.2,1.8-1.4,4.3c3.1,4.6,2.5,10-0.8,14.5c-0.2,0.2-0.3,0.7-0.2,0.9c2.8,5-1.6,3.2-3.4,3.5
		c-6.4,0.9-11.3-1.4-15.1-6.7c-3.2-4.5-7.8-7-13.5-7.7c-4.3-0.5-8.5-1.7-12.7-2.6c-4.3-0.9-5.7-2.7-2.9-6.8c2.3-3.4,1.1-6.4-3.1-7.3
		c-2.2-0.5-2.7-1.2-3.1-3.4c-0.6-3.6-4.1-1-6.3-1.8c-1.4-0.5-0.7,1.9-0.5,3.1c2.9,12.9,9.4,23.6,19.1,32.7c20.7,19.3,51,23,74.9,8.9
		c25.3-14.9,38-44,30.4-71.5c-7-25.1-23.4-41.3-49-46.6c-25.5-5.2-47,2.8-63.4,23.4C7.3,39.8,3.1,53.3,4.2,68.4z"/>
	<path d="M78.5,73.7c-1.9-1.3,0-3.7-2-4c-1.8-0.4-2.5,1.5-3.1,2.8c-1.9,4.1-6.2,7.5-3,13.2c1.1,1.8-2.1,3-3.8,3.7
		c-3.6,1.6-5,3.7-1.8,7.1c2.6,2.8,1.3,6.4,1.5,9.6c0.1,1.8-1.4,2-2.8,2.1c-1,0.1-2.5,0.3-2.2,1.4c1.7,5.8-2.7,2.7-4.3,2.8
		c-3,0.1-5.7-1.6-7.2-4c-4.9-8-12.7-10.2-21.2-11.3c-1.7-0.2-3.3-0.4-4.9-0.8c-6-1.4-5.8-1.3-3.3-7c1.7-4.1-1.1-6.4-4.4-8
		c-1.2-0.6-2.9-0.4-1.7-2.5c2.2-3.5,0.6-3.5-2.4-2.9c-5.2,1-6.3,0-5.6-5.3c0.9-6.6,2.1-13.2,7.3-18.1c1.8-1.7,1.9-4.6,4-6.2
		c3.7-2.9,7.5-3.7,12.2-2.5c5.6,1.4,7-0.2,5.7-5.8c-0.4-1.8-0.7-3.6-1.3-5.3c-1.6-4.2,0.3-6.3,3.8-8.4c12.1-7.7,25.2-7.6,38.7-5.6
		c4.1,0.6,8.3,0.5,12.4,1.1c1.3,0.2,3.3,0.8,3.3,2.5c0,2-2,1.1-3.1,1.5C88.8,24,88,24.1,88,24.3c-1.1,6.2-6,3.8-9.5,3.9
		c-9.1,0.3-18.3,0.1-27.5,0.2c-3,0-7,0.4-7.2,3.6c-0.1,2.6,4,2.8,6.5,3.3c7,1.4,14.1,2.4,21.3,2.7c4.4,0.2,8.5,1.6,12.5,3.1
		c1.3,0.5,2.6,1.2,2.5,2.7c-0.1,1.8-1.8,2.3-3.2,2.8c-1.8,0.6-3.6,0-5.3-0.7c-1.8-0.8-3.8-1.3-5.8-0.5c-1.9,0.7-2.9,2.2-2.9,4.2
		c-0.1,2,1.5,2.5,3,2.7c6.9,1.1,13.5,1.5,19-4.3c4.9-5.2,11.4-8.1,17.6-11.2c4.7-2.4,10.6,3.6,8.3,9.7c-3.2,8.4,0.5,14,4.7,20.1
		c5.1,7.5,1.8,22.1-5.7,27.3c-2.6,1.8-5.4,1.6-8.1,0.8c-3.8-1.2-6.3-1-5.6,4.1c0.4,3-1.8,3.1-3.9,3.1c-4.6,0-14.1-7.5-15-12
		c-0.6-3,1.7-4.6,4.1-5.3c2.7-0.7,3-2.2,2.4-4.5c-0.6-2.4-1.1-4.9-1.9-7.2c-0.6-1.9-1.7-3.8-3.9-4.2c-2.2-0.3-3,1.6-4.1,3.1
		C79.7,72.3,79.2,72.9,78.5,73.7z M43.8,45.2c-5.5-0.1-8,2.3-8.1,6.4c0,1.6,0.6,2.9,2,3.7c1.3,0.7,2.5,0,3.1-0.8
		c2.5-3.4,6.2-3.4,9.8-3.6c2.1-0.2,4.7-0.4,4.2-3.6c-0.4-2.7-2.7-3.2-4.9-3C47.5,44.5,45,45,43.8,45.2z M103.3,60
		c-0.4-1.8-0.6-3.9-1.4-5.6c-0.6-1.4-1.6-3.1-3.6-2.7c-2.6,0.5-1.7,2.3-1.1,3.9c0.5,1.5-0.7,2.9-0.6,4.3c0.2,2.4,1.5,4.1,4,4.2
		C103.1,64,103.1,61.9,103.3,60z M66.8,59.5c1.9-0.1,2.3-1.5,2.2-2.8c-0.2-2.4-0.9-4.8-3.9-4.9c-1.6,0-2.9,1.3-2.8,3
		C62.5,57.5,64.6,58.6,66.8,59.5z"/>
	<path d="M4.2,68.4C3.2,53.2,7.4,39.8,16.8,28C33.3,7.5,54.7-0.6,80.2,4.6c25.6,5.2,42.1,21.5,49,46.6c7.6,27.5-5.1,56.6-30.4,71.5
		c-23.9,14.1-54.2,10.4-74.9-8.9c-9.7-9-16.2-19.8-19.1-32.7C4.5,80,3.9,77.6,5.3,78c2.1,0.7,5.6-1.8,6.3,1.8
		c0.4,2.2,0.9,2.9,3.1,3.4c4.1,0.9,5.4,3.9,3.1,7.3c-2.8,4.1-1.4,5.9,2.9,6.8c4.2,0.9,8.4,2.1,12.7,2.6c5.7,0.6,10.2,3.1,13.5,7.7
		c3.8,5.3,8.7,7.6,15.1,6.7c1.8-0.3,6.2,1.5,3.4-3.5c-0.1-0.2,0-0.7,0.2-0.9c3.4-4.5,3.9-9.9,0.8-14.5c-1.7-2.6-0.8-3.3,1.4-4.3
		c3.4-1.6,6.7-2.9,3.8-8.1c-1.6-2.9,1.7-5.8,3-8.6c0.4-0.9,1.3-0.4,1.7,0.1c2.8,3.6,4,0.8,5.5-1.3c0.6-0.9,0.9-2.4,2.3-2.3
		c1.5,0.1,2.2,1.5,2.5,2.8c0.9,3.9,4.2,8-2.3,10.7c-3.2,1.4-3.7,4.7-1.2,8c4.2,5.5,8.4,11,16.2,11.1c3.1,0.1,5.3-1.1,5-4.6
		c-0.2-2.6,0.6-3,3.1-2.5c7.9,1.6,11.3,0,15-7.2c4.7-8.9,6.6-17.8-0.9-26.4c-3.6-4.1-4.9-8.7-2.6-14.3c1.4-3.5,0.5-7.3-1.5-10.6
		c-2-3.4-5.2-4.9-8.9-2.8c-7,4-14.7,7-20.6,13.1c-4,4.2-9.7,2.6-14.7,2.2c-0.9-0.1-1.6-0.6-1.5-1.6c0.1-0.9,0.8-1.4,1.6-1.7
		c1.4-0.6,2.6,0,3.9,0.4c2.4,0.9,4.9,1.1,7.4,0.4c2-0.5,3.7-1.6,4.1-3.9c0.4-2.5-1.4-3.7-3.2-4.5c-4.1-1.7-8.4-3.2-13-3.5
		c-7.3-0.4-14.6-1.3-21.8-2.9c-1.3-0.3-3.7,0.5-3.4-1.7c0.2-1.7,2.4-1.4,3.9-1.4c10-0.1,20-0.1,30-0.1c1.8,0,3.7,0.1,5.5-0.2
		c1.6-0.3,4,0,3.5-3c-0.2-1.4,1-1.5,2-1.5c1.5,0,2.6-0.7,3-2.1c0.4-1.7-0.8-2.9-2.1-3.6c-1.4-0.8-3-1.7-4.6-1.8
		c-13.6-0.9-27.1-3.2-40.8-0.3c-5.9,1.3-10,5-14.5,8.3c-1.4,1-1.5,2.9-1.1,4.6c0.5,2.1,0.9,4.2,1.4,6.3c1.4,5.9,1.1,6.2-4.7,5
		c-6.3-1.3-11.8,1.6-15.2,7C9.5,54.7,5,60.6,4.2,68.4z"/>
	<path class="st0" d="M43.8,45.2c1.3-0.2,3.7-0.7,6.2-0.9c2.3-0.2,4.5,0.3,4.9,3c0.4,3.1-2.1,3.4-4.2,3.6c-3.7,0.3-7.3,0.2-9.8,3.6
		c-0.6,0.8-1.8,1.5-3.1,0.8c-1.4-0.8-2-2.1-2-3.7C35.7,47.5,38.3,45.1,43.8,45.2z M52.6,47.4c-0.4-0.3-0.9-1.1-1.3-1.1
		c-3.9,0.3-7.9,0.3-11.6,1.2c-1.6,0.4-2.5,3-1.7,5.1c0.4,0.9,1.6,0.9,2.1,0.2c2.6-3.7,6.5-3.4,10.2-3.7
		C51.3,49.1,52.2,48.8,52.6,47.4z"/>
	<path class="st0" d="M103.3,60c-0.2,1.9-0.2,4-2.7,4s-3.8-1.8-4-4.2c-0.1-1.4,1.1-2.8,0.6-4.3c-0.5-1.6-1.4-3.3,1.1-3.9
		c2-0.4,3,1.3,3.6,2.7C102.7,56.1,102.9,58.2,103.3,60z"/>
	<path class="st0" d="M66.8,59.5c-2.2-0.9-4.3-2-4.5-4.7c-0.1-1.6,1.2-3,2.8-3c3,0,3.7,2.5,3.9,4.9C69.1,58,68.7,59.4,66.8,59.5z"/>
	<path d="M52.6,47.4c-0.4,1.4-1.3,1.7-2.4,1.8c-3.8,0.3-7.6,0-10.2,3.7c-0.5,0.7-1.7,0.7-2.1-0.2c-0.8-2.1,0.1-4.7,1.7-5.1
		c3.7-0.9,7.7-0.9,11.6-1.2C51.7,46.3,52.2,47.1,52.6,47.4z"/>
	<path class="st1" d="M46.8,32.1c6.7-1,13.3,0.5,20,1"/>
	<path class="st1" d="M128.6,69.1c0.6,9.4-1.6,18.1-6.8,26"/>
	<path class="st1" d="M7.8,52.1c-2.8,5.5-3.5,11.5-4,17.5"/>
	<path class="st1" d="M90.8,42.1c-3.2,6.8-7.1,8.7-14.5,7c-1.5-0.3-3-1-4.5,0"/>
	<path class="st1" d="M52.8,47.6c-3,0-6,0.4-9,0.9c-3.3,0.5-4.9,1.9-5,5.1"/>
	<path class="st1" d="M65.3,47.1c1.8,3.9,5.1,6.5,8,9.5"/>
	<path class="st1" d="M63.8,84.1c2,1.9,4.6,1.4,7,1.5"/>
	<path class="st1" d="M123.3,54.1c-1.2-0.1-2.3-0.2-3.5-0.3"/>
	<path class="st1" d="M38.3,29.6c-0.8-0.3-1.7-0.5-2.5-0.8"/>
</g>
</svg>
