<?xml version="1.0" encoding="utf-8"?>
<!-- Generator: Adobe Illustrator 22.0.1, SVG Export Plug-In . SVG Version: 6.00 Build 0)  -->
<svg version="1.1" id="Lager_1" xmlns="http://www.w3.org/2000/svg" xmlns:xlink="http://www.w3.org/1999/xlink" x="0px" y="0px"
	 viewBox="0 0 127.2 126.7" style="enable-background:new 0 0 127.2 126.7;" xml:space="preserve">
<style type="text/css">
	.st0{fill:#FFFFFF;}
	.st1{fill:none;stroke:#000000;stroke-width:2;stroke-linecap:round;stroke-linejoin:round;stroke-miterlimit:10;}
</style>
<g>
	<path class="st0" d="M63.5,126.7c-35.2,0-63.1-28-63.5-62.9S28.4-0.8,65.1,0c34.3,0.8,62.2,28.9,62.1,63.9
		C127,98.7,98.6,126.7,63.5,126.7z M49.2,5c-4.6,0.9-9,2.4-13.1,4.6c-41,21.8-44.4,77.3-5.9,103.6c20.1,13.7,41.8,14.4,62.8,2.5
		c21.6-12.3,32.3-31.8,30.8-56.9C121.8,26,90.1-4.7,49.1,5.1L49.2,5z"/>
	<path d="M49,5.1c41-9.8,72.7,20.9,74.7,53.7c1.5,25.1-9.2,44.6-30.8,56.9c-21,11.9-42.7,11.3-62.8-2.5C-8.4,86.9-5,31.4,36,9.6
		C40.1,7.4,44.5,5.9,49,5.1c-0.4,0.8-1.1,1.4-2.1,1.8C11.3,20.4-1.5,60,19.9,91.2c8.6,12.7,19,23.5,35.2,25.7c7.5,1,15.4,2.3,22-3.4
		c1.1-0.9,2.7-1.8,2.4-3.6c-0.4-2.1-2.4-2.1-4-2.4c-5.3-0.9-10.5-2-15.3-4.3c-2.8-1.4-8.1-2.1-7.5-5.1c0.7-3.4,5.6-3.9,9.4-4.1
		c3.5-0.2,6.6-1.1,8.9-3.9c1-1.3,2.5-2.7,1.8-4.4s-2.6-2.4-4.6-2.4c-7.6,0.2-14.9-1.8-22.1-3.5C40,78.4,35,75.1,32.5,68
		c5.8,1.8,10.6,4.1,15.8,4.7c3.1,0.3,6.5,0.5,7.5-3.1c0.9-3.3-2.3-4.3-4.6-5.6c-6.7-3.5-11.4-8.6-13.3-16
		c-4-15.5,5.9-32.3,22.6-32.2c5.3,0,10.7-0.3,16,0.6c1,0.2,2.1,0.6,2.8-0.3c1-1.2,0-2.1-0.6-3.1c-3.2-6.2-9.1-7.4-15.2-7.9
		C58.7,4.8,53.9,5.1,49,5.1z M84.1,94.2c3-0.4,2.8-2.7,2.9-4.8c0.1-1.4,1.3-3.1-0.6-3.9c-2.1-1-3.3,0.9-3.8,2.2
		c-1.3,3.6-4.2,4.9-7.2,6.2c-1.7,0.7-3.4,1.4-5,2.2c-1.2,0.6-3.4,0.8-2.9,2.8c0.5,1.7,2.4,1.5,3.9,1.5c5.2,0,9.5-2.2,12.8-6.3
		L84.1,94.2z M64.6,44.8c3.4,0.1,4.8-1.4,4.4-5.3c-0.2-2.3-1.6-4-3.1-5.5c-1.3-1.2-2-2-1.4-4.1c1.2-3.9-0.7-5.8-5-5.5
		c-5.7,0.4-12.1,8-11.8,14.1c0.2,5.2,2.9,7.4,8.3,7.9C58.9,46.6,61.1,44.1,64.6,44.8z M73.4,54.2c-1,0-3.1,0.4-3.2,2.2
		c-0.3,2.8-2.1,3.6-4.1,4.8c-2.6,1.6-1.9,6.2,1,6.6c3,0.4,5.6,1.5,8.4,2.5c1.8,0.7,3.7,0.1,5-1.4c2.6-3.1,1.6-6.6,0.4-9.9
		C79.8,56,77.5,54.3,73.4,54.2z M85.4,98.7c0.5,2.2,2,3.9,4.5,3.2c4.2-1.2,7.2-4.2,9-8.1c0.9-2-0.4-3.9-2.8-4.4
		C92.8,88.8,85.2,95.1,85.4,98.7z M90,48.2c0.2-2.1-7.8-9.3-9.5-8.7c-1.4,0.5-1.8,1.6-1.1,2.8c1.8,3,3.9,5.8,7.2,7.3
		C88.1,50.3,89.4,49.8,90,48.2z M87.7,35.3c2.5,0.2,4.3-0.6,4.4-3.4c0.1-2.8-1.4-4.4-4.2-4.5c-2.2-0.1-3.9,0.8-4.1,3.3
		C83.6,33.5,84.8,35.2,87.7,35.3z M96.4,21.7c-0.7-2.4-2.5-3.7-5.1-3.6c-1.7,0-4.3-0.5-4.1,2.1c0.2,2.8,3,3.6,5.5,4
		C94.5,24.5,95.9,23.8,96.4,21.7z M67.2,73.5c-1-2-2.8-2.5-4.9-2.4c-1.3,0.1-3.2,0.2-2.9,2c0.5,2.7,3.1,2.7,5.2,2.9
		C66,76.1,67.1,75.3,67.2,73.5z M99.9,103.4c-0.3-0.8-0.8-1.7-2-1.6c-1.7,0.2-2.7,1.3-2.9,2.9c-0.2,1.4,0.9,2.3,2.2,2.1
		C98.8,106.6,99.6,105.3,99.9,103.4z"/>
	<path class="st0" d="M49,5.1c4.8,0,9.7-0.4,14.5,0c6,0.5,12,1.7,15.2,7.9c0.5,1,1.6,2,0.6,3.1c-0.8,0.9-1.9,0.4-2.8,0.3
		c-5.3-0.9-10.6-0.5-16-0.6C43.8,15.7,34,32.5,37.9,48c1.9,7.4,6.6,12.5,13.3,16c2.3,1.2,5.6,2.2,4.6,5.6c-1,3.6-4.5,3.5-7.5,3.1
		c-5.3-0.6-10-2.9-15.8-4.7C35,75.2,40,78.4,46.1,79.8c7.3,1.7,14.5,3.7,22.1,3.5c2-0.1,3.8,0.6,4.6,2.4c0.7,1.7-0.8,3.1-1.8,4.4
		c-2.3,2.8-5.4,3.7-8.9,3.9c-3.7,0.2-8.7,0.7-9.4,4.1c-0.6,3,4.7,3.7,7.5,5.1c4.8,2.3,10,3.4,15.3,4.3c1.5,0.3,3.6,0.3,4,2.4
		c0.3,1.7-1.3,2.7-2.4,3.6c-6.6,5.6-14.5,4.4-22,3.4c-16.2-2.2-26.5-13-35.2-25.7C-1.4,60,11.3,20.4,46.9,6.9c1-0.4,1.7-1,2.2-1.9
		C49.2,5,49,5.1,49,5.1z M78,14.6c-4.4-5.3-8.9-7.2-14.2-7.7c-14.9-1.4-27.2,4.1-36.9,15C14.1,36.3,7.1,53.1,12.2,72.4
		c3.9,14.9,14.2,26.2,26.1,35.6c5.8,4.6,12.7,6.7,19.8,7.5c5.4,0.6,11,0.9,16.1-2c1.1-0.6,2.7-1.3,2.7-2.7c-0.1-1.8-2-1.4-3.2-1.6
		c-5.8-1.4-11.7-2.7-17-5.7c-2.6-1.5-7.4-2.1-6.9-5.3c0.7-3.9,5.4-4.8,9.2-5.7c1.3-0.3,2.7-0.2,4-0.5c2.1-0.4,4.3-0.8,5.8-2.5
		c0.9-1,2.1-1.9,1.5-3.4c-0.6-1.3-2-1-3.1-1C60,85.1,53,83.4,46,81.7s-12.5-5.3-15.3-12.3c-0.5-1.2-1.6-2.4-0.5-3.7
		c1.2-1.4,2.5,0,3.6,0.4c4.6,1.9,9.3,3.7,14.2,4.7c2.1,0.4,4.8,0.8,5.6-1.7c0.7-2.3-2-2.6-3.5-3.4c-16.8-9.1-20.2-30.6-7-44.5
		c3.6-3.8,7.7-6,13-6.8C63,13.6,69.7,14.1,78,14.6z"/>
	<path class="st0" d="M64.6,44.8c-3.4-0.7-5.6,1.7-8.6,1.5c-5.4-0.5-8.1-2.6-8.3-7.9c-0.2-6.1,6.1-13.8,11.8-14.1
		c4.2-0.3,6.2,1.6,5,5.5c-0.7,2.1,0.1,2.9,1.4,4.1c1.6,1.5,2.9,3.2,3.1,5.5C69.4,43.4,68,45,64.6,44.8z M49.5,38.2
		c0.1,5.1,4,7.8,9,5.8c2.2-0.9,3.9-2.5,6.7-1.3c1.7,0.7,2.2-1.7,1.8-3.2c-0.6-2.3-1.7-4.5-4.1-5.2c-2.5-0.8-3.9,1.2-5.2,3
		c-0.7,1-1.6,2.7-3,1.6c-1.5-1.1-0.6-2.7,0.4-3.9c1.5-1.9,3.7-2.7,5.7-3.9c1.3-0.8,2.7-1.9,2-3.6c-0.8-1.9-2.6-1.8-4.3-1.4
		C54.2,27.2,49.4,33.6,49.5,38.2z"/>
	<path class="st0" d="M73.4,54.2c4.1,0,6.4,1.8,7.5,4.9c1.2,3.3,2.2,6.7-0.4,9.9c-1.2,1.5-3.2,2.1-5,1.4c-2.7-1.1-5.4-2.1-8.4-2.5
		c-2.9-0.4-3.6-5-1-6.6c2-1.2,3.8-1.9,4.1-4.8C70.3,54.7,72.4,54.3,73.4,54.2z M80.3,64.1c-0.6-3.1-0.6-6.7-4.7-7.8
		c-1.5-0.4-4.2-0.5-3.6,1.7c1,3.5-0.9,3.4-3,3.9c-1.5,0.3-2.4,1.2-2.2,2.8c0.2,1.5,1.5,1.6,2.7,1.6c1.8,0,3.5,0.4,5.2,1.3
		C77.8,69.3,80.2,67.8,80.3,64.1z"/>
	<path class="st0" d="M84.2,94.1c-3.3,4.1-7.5,6.2-12.8,6.3c-1.5,0-3.4,0.3-3.9-1.5c-0.5-2,1.6-2.1,2.9-2.8c1.6-0.8,3.3-1.5,5-2.2
		c3.1-1.3,6-2.6,7.2-6.2c0.5-1.4,1.7-3.2,3.8-2.2c1.9,0.9,0.7,2.5,0.6,3.9c-0.2,2.2,0.1,4.5-3,4.8c0-0.9,0-1.8,0-3.4
		c-3.2,4.4-8.8,3.9-12.7,7.9C76.9,98.9,80,94.9,84.2,94.1z"/>
	<path class="st0" d="M85.4,98.7c-0.1-3.6,7.4-9.9,10.7-9.2c2.4,0.5,3.7,2.4,2.8,4.4c-1.8,3.9-4.8,6.9-9,8.1
		C87.4,102.6,85.9,100.9,85.4,98.7z M96.9,93.2c-0.2-1.4-1-2.4-2.6-1.7c-2.7,1.2-5,3.2-6.7,5.7c-1.1,1.6,0.1,2.8,1.9,3
		C91.1,100.3,96.8,95,96.9,93.2z"/>
	<path class="st0" d="M90,48.2c-0.6,1.6-1.9,2-3.5,1.3c-3.3-1.5-5.4-4.3-7.2-7.3c-0.7-1.1-0.2-2.3,1.1-2.8
		C82.2,38.9,90.2,46.1,90,48.2z"/>
	<path class="st0" d="M87.7,35.3c-2.9-0.1-4.1-1.8-3.9-4.6c0.2-2.5,1.9-3.4,4.1-3.3c2.8,0.1,4.3,1.7,4.2,4.5
		C92,34.7,90.2,35.5,87.7,35.3z"/>
	<path class="st0" d="M96.4,21.7c-0.5,2.1-1.9,2.8-3.7,2.5c-2.4-0.5-5.3-1.2-5.5-4c-0.2-2.6,2.5-2,4.1-2.1
		C93.9,18,95.7,19.3,96.4,21.7z"/>
	<path class="st0" d="M67.2,73.5c-0.1,1.8-1.2,2.6-2.6,2.5c-2.1-0.2-4.7-0.2-5.2-2.9c-0.3-1.7,1.6-1.9,2.9-2
		C64.3,71,66.2,71.5,67.2,73.5z"/>
	<path class="st0" d="M99.9,103.4c-0.3,1.9-1.1,3.2-2.7,3.4c-1.3,0.2-2.3-0.7-2.2-2.1c0.2-1.6,1.3-2.7,2.9-2.9
		C99.2,101.7,99.6,102.6,99.9,103.4z"/>
	<path d="M78,14.6c-8.3-0.5-15.1-1-21.9,0c-5.2,0.8-9.4,3-13,6.8c-13.2,13.9-9.9,35.5,7,44.5c1.5,0.8,4.2,1.1,3.5,3.4
		c-0.8,2.5-3.5,2.1-5.6,1.7c-4.9-1-9.5-2.9-14.2-4.7c-1.1-0.4-2.4-1.8-3.6-0.4c-1.1,1.3,0.1,2.5,0.5,3.7c2.8,7,8.3,10.6,15.3,12.3
		s13.9,3.3,21.2,3.4c1.1,0,2.5-0.4,3.1,1c0.7,1.5-0.6,2.4-1.5,3.4c-1.6,1.8-3.7,2.1-5.8,2.5c-1.3,0.2-2.7,0.2-4,0.5
		c-3.8,0.8-8.5,1.7-9.2,5.7c-0.5,3.2,4.3,3.8,6.9,5.3c5.3,3,11.1,4.3,17,5.7c1.2,0.3,3.1-0.2,3.2,1.6c0,1.4-1.5,2.1-2.7,2.7
		c-5.1,2.9-10.6,2.6-16.1,2c-7.2-0.8-14.1-2.9-19.8-7.5c-12-9.5-22.2-20.7-26.1-35.6c-5.1-19.3,1.9-36.1,14.7-50.5
		c9.7-10.9,22-16.5,36.9-15C69.1,7.4,73.7,9.3,78,14.6z"/>
	<path d="M49.5,38.2c-0.1-4.6,4.7-11.1,9-12c1.7-0.4,3.5-0.5,4.3,1.4c0.7,1.7-0.7,2.8-2,3.6c-2,1.2-4.2,2-5.7,3.9
		c-0.9,1.2-1.9,2.8-0.4,3.9c1.5,1.1,2.3-0.6,3-1.6c1.3-1.8,2.7-3.7,5.2-3c2.4,0.7,3.5,2.9,4.1,5.2c0.3,1.5-0.1,3.9-1.8,3.2
		c-2.9-1.2-4.5,0.4-6.7,1.3C53.5,46,49.6,43.3,49.5,38.2z"/>
	<path d="M80.3,64.1c-0.1,3.6-2.4,5.2-5.6,3.5c-1.7-0.9-3.4-1.2-5.2-1.3c-1.2,0-2.4-0.1-2.7-1.6c-0.2-1.6,0.7-2.5,2.2-2.8
		c2.2-0.4,4-0.4,3-3.9c-0.7-2.2,2-2.2,3.6-1.7C79.6,57.4,79.6,61.1,80.3,64.1z"/>
	<path d="M84.2,94.1C80,95,76.9,99,71.3,98.7c3.9-4,9.5-3.6,12.7-7.9c0,1.6,0,2.5,0,3.4C84.1,94.2,84.2,94.1,84.2,94.1z"/>
	<path d="M96.9,93.2c-0.1,1.8-5.8,7.1-7.4,7c-1.8-0.2-3-1.3-1.9-3c1.7-2.5,3.9-4.4,6.7-5.7C95.9,90.8,96.7,91.7,96.9,93.2z"/>
	<path class="st1" d="M77.9,7.7C61.5,0.9,46.1,3.6,32,13.3C16.2,24.1,8.1,39.8,5.9,58.7"/>
	<path class="st1" d="M6.2,65.2C7,67.3,5.8,69.6,7,71.7"/>
	<path class="st1" d="M76.4,14.7c-1.2-3.4-4.9-2-7-3.5"/>
	<path class="st1" d="M66.9,102.4c0.8,0.3,1.7,0.5,2.5,0.8"/>
	<path class="st1" d="M33.9,68.7c1.1,2.8,3.6,3.8,6,5"/>
	<path class="st1" d="M90.4,88.7c-2.9,5-8.6,8.5-9,15"/>
	<path class="st1" d="M81.9,23.2c5.5,1.1,10.6,3.4,15.5,6"/>
	<path class="st1" d="M98.4,98.7c-3.1,1.9-5.8,4.2-7.5,7.5"/>
	<path class="st1" d="M61.4,28.7c-4.2,0-6.6,2.5-8.6,6c-1.4,2.4-1.6,4.9,0.2,6.4c1.8,1.4,4.4,1.3,6.4-0.8c0.7-0.8,1.6-1.4,2.5-2"/>
	<path class="st1" d="M83.4,92.2c-3.1,3.8-7.9,4.6-12,6.5"/>
	<path class="st1" d="M59.9,67.2c-1.6,3.1-3.8,6-4.5,9.5"/>
</g>
</svg>
