<?xml version="1.0" encoding="utf-8"?>
<!-- Generator: Adobe Illustrator 22.0.1, SVG Export Plug-In . SVG Version: 6.00 Build 0)  -->
<svg version="1.1" id="Lager_1" xmlns="http://www.w3.org/2000/svg" xmlns:xlink="http://www.w3.org/1999/xlink" x="0px" y="0px"
	 viewBox="0 0 119.3 118.9" style="enable-background:new 0 0 119.3 118.9;" xml:space="preserve">
<style type="text/css">
	.st0{fill:#FFFFFF;}
	.st1{fill:none;stroke:#000000;stroke-width:2;stroke-linecap:round;stroke-linejoin:round;stroke-miterlimit:10;}
</style>
<g>
	<path class="st0" d="M59.6,118.9C27.2,119,0.5,92.5,0,60.6C-0.6,25.3,30.8,0.9,57,0c35.2-1.2,62.6,28.2,62.3,59.7
		C118.9,92.5,92.8,118.8,59.6,118.9z M115.9,60.1c0.2-3.5-0.5-7-0.9-10.4c-0.3-2.9-1.7-4.4-4.3-5.4C81.4,33.4,51.4,25.8,20.2,23.1
		c-2.4-0.2-3.8,0.5-5.1,2.2C9.8,31.9,6.4,39.4,4.5,47.6c-0.6,2.8,0.1,3.9,3,4.3c6.9,0.9,13.8,1.9,20.7,3.3
		c27.4,5.6,54.6,11.8,81,20.8c3.3,1.1,4.6,0,5.2-3C115.2,68.7,116,64.4,115.9,60.1z M3.3,61.3c0.1,1,0.5,3,0.4,5
		c-0.2,5.5,2.4,8.1,7.6,9.9c26.1,9.3,52.9,15.3,80.4,18.6c12.3,1.5,12.3,1.3,18-9.5c3.3-6.2,3.2-6.5-3.3-8.5
		C75,67,43.1,59.1,10.4,54.2C3.5,53.2,3.5,53.1,3.3,61.3z M5.5,76.3c1.9,4.2,3.2,7.3,4.7,10.2c4.7,8.9,11.3,15.1,21.4,18.1
		c13.1,3.9,26.4,6.8,40,8.2c3.8,0.4,7.3-0.2,10.7-1.8c5.2-2.4,10.1-5.2,14.2-9.1c1.1-1.1,3.4-1.8,2.8-3.7s-2.8-1.3-4.4-1.4
		C73.8,94.7,53,90.9,32.7,84.9C24,82.4,15.4,79.5,5.5,76.3z M34.9,9.6c-4.7,0.9-8.6,5.1-13.1,8.4c-0.8,0.6-1.9,1.2-1.6,2.3
		c0.4,1.5,1.9,1.1,2.9,1.2c29.8,2.8,58.5,9.9,86.5,20.4c0.9,0.3,1.9,1.2,2.8,0.5c1.1-1,0.2-2.1-0.2-3.2c-3-8.2-7.9-13.6-16.9-16.4
		C75.9,16.8,56.3,12,34.9,9.6z M39.7,7.9C60.6,10.5,80.6,16,101.5,23C88.8,5.5,57.2-2,39.7,7.9z M29.7,106.5
		c11.1,8.2,23.6,10.4,37,8.2C54.2,112.6,41.8,110.3,29.7,106.5z"/>
	<path d="M115.9,60.1c0.1,4.4-0.7,8.6-1.5,12.9c-0.5,3.1-1.9,4.2-5.2,3c-26.4-9.1-53.7-15.3-81-20.8c-6.8-1.4-13.8-2.3-20.7-3.3
		c-2.9-0.4-3.6-1.5-3-4.3c1.8-8.3,5.3-15.7,10.6-22.3c1.3-1.7,2.8-2.4,5.1-2.2c31.2,2.7,61.2,10.3,90.5,21.2c2.6,1,4,2.5,4.3,5.4
		C115.4,53.1,116,56.6,115.9,60.1z"/>
	<path d="M3.3,61.3c0.2-8.2,0.2-8.1,7.2-7.1c32.6,4.8,64.5,12.7,96,22.6c6.5,2,6.6,2.3,3.3,8.5c-5.7,10.9-5.7,11-18,9.5
		c-27.5-3.3-54.3-9.3-80.4-18.6c-5.2-1.8-7.8-4.5-7.6-9.9C3.8,64.4,3.4,62.4,3.3,61.3z"/>
	<path d="M5.5,76.3c9.9,3.1,18.5,6.1,27.2,8.6c20.3,6,41.1,9.8,62.2,11.9c1.6,0.2,3.8-0.4,4.4,1.4c0.6,1.9-1.7,2.6-2.8,3.7
		c-4.2,3.9-9,6.8-14.2,9.1c-3.4,1.6-6.9,2.1-10.7,1.8c-13.6-1.4-26.9-4.3-40-8.2c-10.1-3-16.7-9.2-21.4-18.1
		C8.7,83.7,7.5,80.6,5.5,76.3z"/>
	<path d="M34.9,9.6c21.4,2.4,41,7.2,60.4,13.3c9,2.8,14,8.2,16.9,16.4c0.4,1.1,1.3,2.2,0.2,3.2c-0.9,0.7-1.9-0.2-2.8-0.5
		c-28-10.5-56.7-17.6-86.5-20.4c-1.1-0.1-2.6,0.3-2.9-1.2c-0.3-1.1,0.8-1.7,1.6-2.3C26.2,14.7,30.2,10.5,34.9,9.6z"/>
	<path d="M39.7,7.9c17.6-10,49.1-2.5,61.8,15.1C80.6,16,60.5,10.5,39.7,7.9z"/>
	<path d="M29.7,106.5c12.1,3.8,24.5,6.1,37,8.2C53.3,116.9,40.8,114.7,29.7,106.5z"/>
	<path class="st1" d="M6.3,77.6c2,0.5,3.1,2.3,4.5,3.5"/>
	<path class="st1" d="M99.8,21.6c-2.2-2.4-5.4-2.9-8-4.5"/>
	<path class="st1" d="M51.8,6.8c-4.2,0.3-8.3,0.5-12.5,0.8"/>
	<path class="st1" d="M29.8,106.6c11.8,6.1,24.3,8.4,37.5,8"/>
	<path class="st1" d="M6.6,56.1c0.8,1.2,1.5,2.3,2.3,3.5"/>
</g>
</svg>
