<?xml version="1.0" encoding="utf-8"?>
<!-- Generator: Adobe Illustrator 22.0.1, SVG Export Plug-In . SVG Version: 6.00 Build 0)  -->
<svg version="1.1" id="Lager_1" xmlns="http://www.w3.org/2000/svg" xmlns:xlink="http://www.w3.org/1999/xlink" x="0px" y="0px"
	 viewBox="0 0 133.5 133.2" style="enable-background:new 0 0 133.5 133.2;" xml:space="preserve">
<style type="text/css">
	.st0{fill:#FFFFFF;}
</style>
<g>
	<path class="st0" d="M66.9,0c37.8,0.2,66.7,29.4,66.6,67c-0.1,38.1-34,67.4-69,66.2C29.9,132-0.1,102.3,0,67.2
		C0,28.9,29-0.1,66.9,0z M66.9,3.3C31.6,3.3,3.3,31.1,3.1,65.9c-0.2,35.2,28.2,63.9,63.1,63.9c35.8,0,63.8-28,64-64
		C130.4,31.7,101.7,3.3,66.9,3.3z"/>
	<path d="M66.9,3.3c34.8,0,63.5,28.4,63.3,62.5c-0.2,36-28.2,64-64,64c-34.9,0-63.3-28.8-63.1-63.9C3.3,31,31.6,3.2,66.9,3.3z"/>
</g>
</svg>
