<?xml version="1.0" encoding="utf-8"?>
<!-- Generator: Adobe Illustrator 22.0.1, SVG Export Plug-In . SVG Version: 6.00 Build 0)  -->
<svg version="1.1" id="Lager_1" xmlns="http://www.w3.org/2000/svg" xmlns:xlink="http://www.w3.org/1999/xlink" x="0px" y="0px"
	 viewBox="0 0 132.4 132.4" style="enable-background:new 0 0 132.4 132.4;" xml:space="preserve">
<style type="text/css">
	.st0{fill:#FFFFFF;}
	.st1{fill:none;stroke:#000000;stroke-width:2;stroke-linecap:round;stroke-linejoin:round;stroke-miterlimit:10;}
</style>
<g>
	<path class="st0" d="M132.4,66.2c1.2,36.1-31.3,67.6-68.9,66.2C32.3,131.2-0.2,104,0,65.6C0.2,31,29.8-1.5,69.6,0.1
		C103.7,1.5,132.6,30.9,132.4,66.2z M103.1,87.4c-1.6,2.8-4.6,3.6-7.1,5.1c-13.4,7.6-23.8,18-30.1,32.3c-0.6,1.3-1.8,3,0,3.9
		c1.7,0.8,3.9,1.2,5.3-1c0.5-0.8,1-1.7,1.4-2.7c5.9-15.9,16.7-27.4,32-34.6c4-1.9,7.8-4.4,12.9-7.2c-6.3,0-9.7,4.2-14.4,4.4
		c3.8-3.7,8.8-5.2,13.7-6.7c1.6-0.5,4.2-1.3,4.9,0.8c0.8,2.3-1.9,2.7-3.4,3.4c-8.3,4.2-16.6,8.4-24.3,13.7
		c-10.6,7.1-16,17.7-20.3,29.4c16.3,0.6,41.9-16.1,45.6-29.3c-11.7,2.2-24.4,9.4-25.3,14.9c6.9-3.3,12-9.5,20-9.8
		c-6,6.5-12.2,12.7-20.6,15.9c-2.1,0.8-4.3,1-6.1-0.8c-1.8-1.9-1.1-4-0.3-6.1c1.1-2.9,3.4-5,5.6-6.9c7.5-6.3,16.2-10.4,25.8-12.5
		c2.3-0.5,5-0.4,6.2-3.3c2.4-5.9,4-12,4.5-18.4c0.2-2.6-0.6-3.2-3.2-2.3c-8.7,2.9-17.4,5.5-25.5,9.9c-4.2,2.3-8.6,4.3-13,6.4
		c-1.4,0.7-3,0.9-4-0.7c-1-1.5,0.2-2.5,1-3.5c0.6-0.8,1.4-1.4,2.2-2c8.3-6.4,17.1-12.2,26.6-16.6c3.9-1.8,8.3-4,13.6-3
		c-2.2,3.8-7.1,3.3-9.2,6.9c12.6-3.1,12.6-0.6,10.5-13.1c-0.4-2.1-1-4.2-1.5-6.3s-1.6-2.8-3.9-2.4c-5.8,0.9-11.3,2.5-16.9,4.1
		c-1.4,0.4-3.6,2.2-4.4,0.3c-0.9-2.1,1.8-2.8,3.3-3.6c4.7-2.5,9.7-4.3,15-5.3c1.4-0.3,3.6-0.2,3.1-2.2c-0.4-1.9-1.1-4.5-3.9-4.4
		c-2.3,0.1-4.6,0.7-6.8,1.3c-20.2,5.8-38.6,15.2-56,26.7c-11,7.3-21,15.8-30.3,25.1c-1.2,1.2-2.7,3.1-4.7,1.6
		c-1.7-1.3-1.2-3.4-0.4-5.1c1.4-2.9,2.5-6.1,5.4-8.1c-0.1,3.1-3,5-3.5,8c-0.2,1.1-1.3,2.5,0.2,3s2.8-1.2,2.7-2.2
		c-0.6-4.5,2.8-6.9,4.8-9.9c3.4-4.9,7.4-9.4,11.6-13.5c1.2-1.1,2.7-2.1,3.1-4.9c-3.6,2.7-6,5.4-8.5,8c-3.7,3.7-6.1,8.6-10.5,11.7
		c4.3-8.2,10.3-15,17.4-20.9c1.3-1,3-2,4.5-0.3c1.4,1.6-0.3,2.7-1.1,3.8c-2.2,2.9-5.4,5-7.6,9c1.3-0.6,1.8-0.7,2.2-1
		c22-16.6,44.6-32.2,72.4-37.6c3.2-0.6,2.2-2,0.7-3.7c-5.2-6-11.2-10.9-18.1-14.8c-2.7-1.6-5.1-1.7-8-0.5c-7,3-14.2,5.7-21.3,8.5
		c-1.6,0.6-3.4,1.3-4.5-0.4c-1.3-1.9,0.1-3.5,1.5-4.7c3.3-2.8,7.1-4.9,11-6.8C76,6,77.2,5.8,76.8,4.5c-0.3-0.9-1.3-0.8-2.1-0.9
		C67.9,3.1,61,2.4,55.8,8.4c-1.6,1.9-3.8,3.2-5.7,4.9c-1,0.9-2.1,1.9-3.4,0.6s-0.9-2.6-0.1-4c0.8-1.3,2.8-1.9,2.5-4
		c-13.5,2.7-31,16.4-35.5,27.6c2.5-0.5,3.7-2.6,5.4-4.1c4.3-3.7,8.5-7.6,14.3-8.7c1.2-0.2,3-0.7,3.6,0.8S36,23.8,35,24.6
		c-9.2,6.9-17.2,15.3-26,22.6c-3.8,3.1-4.5,7-4.4,11.5c0.6-0.1,1,0,1.2-0.1c0.7-0.7,1.4-1.4,2.1-2.1c6.3-6.5,13.6-11.7,21.8-15.6
		c2.1-1,5.1-3.4,6.7-0.9c1.3,2-2,3.9-3.7,5.2C22.5,52.7,14.4,62.1,6.8,72.1c-1.5,1.9-2.4,3.8-1.9,6.4c2.4,11.5,7.6,21.6,15.7,30.2
		c1.8,2,2.8,2.3,4.2-0.5c9.3-19,24.4-32.6,41.6-44.2c2.5-1.7,5-3.2,8.2-3.4c2-0.1,3.6,0.5,4.5,2.4c0.8,1.9-0.8,2.8-1.9,3.6
		c-5,3.9-10.1,7.6-15.1,11.5c-12.6,9.9-23.4,21.3-29,36.7c-0.4,1.1-1.8,2.7-0.2,3.6c1.8,0.9,1.9-1.3,2.5-2.3
		C41.1,106,48,96.9,56.5,89c3.5-3.3,7.5-6.1,12.2-7.6c1.1-0.3,2.4-1,3.2,0.2c0.8,1.3-0.4,2.1-1.2,2.9c-6.2,5.6-12.2,11.4-15.9,19
		c-0.6,1.3-2,2-2.5,0.4c-0.9-3-1.6-1.6-2.7-0.2c-3.9,5-6.5,10.8-9.7,16.2c-1.3,2.2-0.1,2.9,1.6,3.7c4.4,2.1,9,3.4,13.8,4.3
		c7.3,1.3,7.4,1.3,10.3-5.4C72.7,105.4,86.1,94.4,103.1,87.4z M73.5,62.5c-2.3,0.2-4.1,1.4-5.9,2.6C52.2,75.3,38.8,87.6,29,103.5
		c-1.5,2.4-2.7,4.9-3.9,7.5c-1.4,3.2,1.5,4.2,3.3,5.2c2.2,1.2,2.1-1.2,2.6-2.5c4.5-12.6,13.1-22.2,22.8-31
		c6.4-5.8,13.5-10.8,20.5-15.8c1-0.7,2.5-1.4,2-3.1C76,62.5,74.7,62.4,73.5,62.5z M32.1,78.3c2-1.7,4-3.4,6-5.1
		C61.3,55,86.3,40,115.3,32.9c1.1-0.3,2.7-0.2,2.4-1.8c-0.3-1.6-1.9-0.9-2.9-0.6c-4.7,1.1-9.5,1.9-14,3.4c-18.8,6-34.7,17.3-50.9,28
		C43.1,66.4,36.7,71.4,32.1,78.3z M4.4,72.5C12.3,61.3,20.7,51.8,30.9,44c0.3-0.2,0.4-0.8,0.7-1.5c-2.2-0.4-3.7,1-5.2,1.8
		c-7.6,4.2-14,10.1-20.2,16.1C2.9,63.7,2.7,67.3,4.4,72.5z M66.8,85.4c-10.8,2.7-31.9,27.9-30.5,36.5C44,107,52.9,94.1,66.8,85.4z
		 M84.7,83.4c2,1.2,2.6,0.6,3.4,0.2c8.3-3.8,15.9-8.7,22.2-15.4c0.7-0.7,2.4-0.6,1.9-3.1C102.4,70.5,93.5,76.3,84.7,83.4z M89,7.5
		c-3.8-1.3-6.1-2.8-8.9-1.4c-5.4,2.8-11.2,5-15.8,9.1c-0.5,0.4-0.6,1.2-0.1,1.7c0.3,0.3,0.9,0.3,1.3,0.2C73,14.2,80.4,11.1,89,7.5z
		 M6.8,44.2c0.3,0.4,0.7,0.8,1,1.2C16,38.2,24.3,31,32.5,23.8c-0.4-0.4-0.7-0.8-1.1-1.2C22.3,28.7,13,34.7,6.8,44.2z M91.4,110.3
		c-1.8,0.9-2.5,2.2-3,3.6c-0.4,1.3-0.8,2.6,0.3,3.8c1.1,1.2,2.5,1,3.7,0.6c5.5-2.1,10.2-5.4,13.9-10.1c-3.4,1.6-6.5,3.8-9.7,5.7
		c-1.4,0.8-2.8,2.3-4.5,1.3C90.1,114.1,91.7,112.2,91.4,110.3z M119.1,95.8c-8.9,1.5-17.2,4.7-24.1,11
		C102.7,102.4,111,99.3,119.1,95.8z M57,5c-4.3,0.4-7.1,2.7-9.2,5.8c0.3,0.3,0.6,0.7,0.9,1C51.5,9.6,54.2,7.3,57,5z"/>
	<path d="M25.8,75.7c-2.9,2-4,5.1-5.4,8.1c-0.8,1.7-1.3,3.8,0.4,5.1c2,1.5,3.4-0.3,4.7-1.6c9.3-9.3,19.3-17.9,30.3-25.1
		c17.5-11.5,35.9-20.9,56-26.7c2.2-0.6,4.5-1.2,6.8-1.3c2.8-0.2,3.5,2.4,3.9,4.4c0.4,2.1-1.7,1.9-3.1,2.2c-5.2,1.1-10.2,2.9-15,5.3
		c-1.5,0.8-4.2,1.5-3.3,3.6c0.8,1.9,2.9,0.1,4.4-0.3c5.6-1.7,11.1-3.2,16.9-4.1c2.4-0.4,3.4,0.3,3.9,2.4c0.5,2.1,1.1,4.2,1.5,6.3
		c2.1,12.5,2.1,10-10.5,13.1c2.1-3.7,7-3.1,9.2-6.9c-5.3-1-9.6,1.2-13.6,3c-9.5,4.4-18.2,10.3-26.6,16.6c-0.8,0.6-1.6,1.3-2.2,2
		c-0.8,1-2,2-1,3.5c1,1.6,2.6,1.4,4,0.7c4.3-2.1,8.7-4.1,13-6.4c8.1-4.4,16.8-7,25.5-9.9c2.6-0.9,3.4-0.3,3.2,2.3
		c-0.5,6.4-2.1,12.5-4.5,18.4c-1.2,3-3.9,2.8-6.2,3.3c-9.6,2.1-18.3,6.2-25.8,12.5c-2.3,1.9-4.5,4-5.6,6.9c-0.8,2.1-1.6,4.2,0.3,6.1
		c1.8,1.8,4,1.6,6.1,0.8c8.4-3.2,14.6-9.4,20.6-15.9c-8,0.4-13.2,6.6-20,9.8c1-5.5,13.7-12.7,25.3-14.9
		c-3.6,13.2-29.3,29.8-45.6,29.3c4.3-11.7,9.7-22.2,20.3-29.4c7.8-5.2,16-9.5,24.3-13.7c1.5-0.7,4.2-1.1,3.4-3.4
		c-0.7-2-3.3-1.3-4.9-0.8c-4.9,1.5-9.8,3-13.7,6.7l0.2-0.2c-17.1,7-30.4,18.1-38,35.4c-2.9,6.7-3,6.7-10.3,5.4
		c-4.8-0.8-9.4-2.2-13.8-4.3c-1.7-0.8-2.9-1.5-1.6-3.7c3.2-5.4,5.9-11.2,9.7-16.2c1-1.3,1.7-2.7,2.7,0.2c0.5,1.6,1.8,0.9,2.5-0.4
		c3.8-7.6,9.8-13.4,15.9-19c0.9-0.8,2-1.6,1.2-2.9c-0.8-1.2-2.2-0.6-3.2-0.2c-4.7,1.5-8.7,4.3-12.2,7.6c-8.5,7.9-15.4,17-21.1,27.1
		c-0.5,1-0.7,3.2-2.5,2.3c-1.6-0.8-0.2-2.4,0.2-3.6c5.6-15.4,16.4-26.8,29-36.7c5-3.9,10.1-7.6,15.1-11.5c1.1-0.8,2.7-1.7,1.9-3.6
		C77.6,61.5,76,60.9,74,61c-3.2,0.1-5.7,1.7-8.2,3.4C48.6,76,33.5,89.6,24.2,108.6c-1.4,2.8-2.4,2.5-4.2,0.5
		c-8-8.6-13.3-18.7-15.7-30.2c-0.5-2.6,0.4-4.5,1.9-6.4c7.6-10,15.7-19.4,25.9-26.9c1.7-1.3,5-3.1,3.7-5.2c-1.6-2.5-4.6-0.1-6.7,0.9
		c-8.2,3.9-15.5,9.1-21.8,15.6c-0.7,0.7-1.4,1.4-2.1,2.1C5,59.2,4.6,59.1,4,59.1c0-4.5,0.6-8.3,4.4-11.5c8.8-7.4,16.8-15.7,26-22.6
		c1-0.8,2.6-1.6,1.9-3.1c-0.6-1.5-2.4-1.1-3.6-0.8c-5.8,1.1-10,5.1-14.3,8.7c-1.7,1.5-2.9,3.6-5.4,4.1C17.4,22.7,35,9,48.5,6.3
		c0.4,2.1-1.7,2.6-2.5,4c-0.8,1.5-1.3,2.8,0.1,4c1.3,1.3,2.4,0.2,3.4-0.6c1.9-1.6,4.1-3,5.7-4.9C60.4,2.7,67.3,3.4,74.1,4
		c0.8,0.1,1.9,0,2.1,0.9c0.4,1.3-0.8,1.5-1.7,1.9c-3.9,1.8-7.7,3.9-11,6.8c-1.4,1.2-2.8,2.8-1.5,4.7c1.1,1.7,2.9,1,4.5,0.4
		c7.1-2.8,14.3-5.5,21.3-8.5c2.9-1.2,5.3-1.1,8,0.5c6.9,3.9,12.9,8.8,18.1,14.8c1.4,1.7,2.5,3-0.7,3.7c-27.8,5.4-50.4,21-72.4,37.6
		c-0.4,0.3-0.9,0.4-2.2,1c2.2-4,5.5-6.1,7.6-9c0.8-1.1,2.6-2.2,1.1-3.8c-1.4-1.7-3.2-0.7-4.5,0.3c-7.1,5.9-13.1,12.6-17.4,20.9
		L25.8,75.7z M40.7,48.1c1.4,0.4,1.8,0.7,2,0.6c9.1-5.5,16.1-13.2,23.4-20.7c0.7-0.8,1-1.7,0.2-2.7c-0.8-0.9-1.8-0.7-2.7-0.3
		c-4.8,2-9.1,4.7-13.1,8c-1,0.8-2.1,2.4,0.1,2.9c3.5,0.8,0.9,1.9,0.2,2.5C47.5,41.6,44.3,44.6,40.7,48.1z"/>
	<path d="M73.5,62.5c1.2-0.1,2.5,0,2.9,1.3c0.5,1.6-1,2.3-2,3.1c-7,5-14.1,9.9-20.5,15.8c-9.7,8.8-18.3,18.4-22.8,31
		c-0.4,1.2-0.4,3.7-2.6,2.5c-1.8-1-4.7-2-3.3-5.2c1.1-2.6,2.4-5.1,3.9-7.5c9.8-15.8,23.1-28.2,38.6-38.4
		C69.4,63.9,71.2,62.7,73.5,62.5z"/>
	<path d="M32.1,78.3c4.6-7,11-12,17.7-16.4c16.2-10.7,32.1-22.1,50.9-28c4.6-1.5,9.3-2.3,14-3.4c1-0.2,2.6-1,2.9,0.6
		c0.3,1.6-1.3,1.5-2.4,1.8C86.2,40,61.3,55,38,73.2C36,74.9,34.1,76.6,32.1,78.3z"/>
	<path d="M103,87.5c4.7-0.2,8.1-4.4,14.4-4.4c-5,2.9-8.8,5.3-12.9,7.2c-15.4,7.2-26.1,18.7-32,34.6c-0.3,0.9-0.8,1.8-1.4,2.7
		c-1.4,2.2-3.6,1.9-5.3,1c-1.8-0.9-0.5-2.6,0-3.9c6.3-14.2,16.7-24.7,30.1-32.3c2.5-1.4,5.6-2.3,7.2-5.1
		C103.1,87.4,103,87.5,103,87.5z"/>
	<path d="M4.4,72.5c-1.6-5.3-1.4-8.8,1.9-12c6.2-6,12.5-11.9,20.2-16.1c1.5-0.8,2.9-2.2,5.2-1.8c-0.3,0.7-0.4,1.2-0.7,1.5
		C20.7,51.9,12.3,61.3,4.4,72.5z"/>
	<path d="M66.8,85.4C52.9,94.1,44,107,36.3,121.9C34.9,113.3,55.9,88.1,66.8,85.4z"/>
	<path d="M84.7,83.4c8.7-7.1,17.7-12.9,27.4-18.3c0.5,2.6-1.2,2.4-1.9,3.1c-6.3,6.7-13.8,11.6-22.2,15.4
		C87.4,84,86.8,84.7,84.7,83.4z"/>
	<path d="M89,7.5c-8.7,3.6-16.1,6.6-23.5,9.7c-0.4,0.1-1,0.1-1.3-0.2c-0.6-0.5-0.4-1.3,0.1-1.7c4.6-4.1,10.4-6.3,15.8-9.1
		C82.9,4.7,85.2,6.2,89,7.5z"/>
	<path d="M6.8,44.2c6.2-9.5,15.4-15.6,24.6-21.7c0.4,0.4,0.7,0.8,1.1,1.2C24.3,30.9,16,38.1,7.8,45.3C7.5,45,7.2,44.6,6.8,44.2z"/>
	<path d="M25.6,75.9c4.3-3.2,6.8-8,10.5-11.7c2.6-2.6,4.9-5.3,8.5-8c-0.3,2.8-1.9,3.8-3.1,4.9c-4.3,4.2-8.2,8.7-11.6,13.5
		c-2.1,3-5.4,5.4-4.8,9.9c0.1,1-1.1,2.8-2.7,2.2c-1.5-0.5-0.4-1.9-0.2-3c0.5-3,3.4-4.9,3.5-8C25.8,75.7,25.6,75.9,25.6,75.9z"/>
	<path d="M91.4,110.3c0.3,1.9-1.3,3.8,0.7,4.9c1.8,1,3.2-0.5,4.5-1.3c3.2-2,6.3-4.1,9.7-5.7c-3.7,4.6-8.4,8-13.9,10.1
		c-1.2,0.5-2.6,0.7-3.7-0.6c-1-1.2-0.7-2.5-0.3-3.8C88.9,112.4,89.6,111.1,91.4,110.3z"/>
	<path d="M119.1,95.8c-8.2,3.5-16.4,6.6-24.1,11C102,100.5,110.2,97.3,119.1,95.8z"/>
	<path d="M57,5c-2.7,2.3-5.5,4.6-8.2,6.8c-0.3-0.3-0.6-0.7-0.9-1C49.8,7.7,52.7,5.4,57,5z"/>
	<path class="st0" d="M40.7,48.1c3.6-3.5,6.8-6.5,10-9.6c0.6-0.7,3.3-1.8-0.2-2.5c-2.2-0.5-1-2.1-0.1-2.9c4-3.3,8.3-6,13.1-8
		c1-0.4,1.9-0.6,2.7,0.3c0.9,0.9,0.6,1.9-0.2,2.7c-7.2,7.6-14.3,15.3-23.4,20.7C42.5,48.8,42.1,48.5,40.7,48.1z"/>
	<path class="st1" d="M116.9,30.1c-4,4-9.7,3.3-14.6,4.8c-13,4.2-24.8,10.8-36.4,17.7c-12.1,7.2-23.7,15.2-34,25"/>
	<path class="st1" d="M33.4,119.1c-0.5-5.2,2.8-9.2,5.2-12.8c6.8-10.1,14.7-19.5,25.3-26.2"/>
	<path class="st1" d="M123.4,76.6c2,3.3,1.3,6.4-0.5,9.5"/>
	<path class="st1" d="M106.4,94.1c-7.5,4.7-15.9,8.2-21.1,15.9c-0.7,1-0.8,2.1-1.4,3.1"/>
	<path class="st1" d="M76.4,64.6c-2.4-1.5-3.9,0.6-5.5,1.6c-4.5,2.8-8.7,5.9-13,8.9"/>
	<path class="st1" d="M57.4,75.6c-6.9,6.8-14.9,12.5-20,21"/>
	<path class="st1" d="M115.9,83.6c-11.3,4.9-22.1,10.7-31.6,18.9c-5.8,5.1-9.5,11.4-12.9,18.1"/>
	<path class="st1" d="M76.4,4.6c-2.7,0.7-5.3,1.3-8,2"/>
	<path class="st1" d="M7.4,52.3c0.2,2.6-3.1,4-2.5,6.8"/>
	<path class="st1" d="M66.4,85.1c-13.7,8.4-22.7,20.9-30.5,34.5"/>
	<path class="st1" d="M114.9,102.6c0.4,4.5-3.8,5.5-6,8c-4.1,4.7-9.4,7.8-14.9,10.6c-3.9,2-7.6,1.8-11.5,0.4"/>
	<path class="st1" d="M31.4,43.1C22,48.3,14,55.2,7.4,63.6c-1.5,1.9-2.6,4.1-3,6.5"/>
	<path class="st1" d="M112.4,66.6c-6.7,1.5-10.1,7.8-16,10.6c-3.8,1.8-7.4,4.3-11,6.4"/>
	<path class="st1" d="M49.4,6.1c-2.7,1.3-5.3,2.9-7.5,5"/>
	<path class="st1" d="M28.4,19.1c-6,4.3-10.9,9.7-16,15"/>
	<path class="st1" d="M43.9,57.6C37.3,64.2,30.9,71,25.7,79c-1.7,2.7-1.3,5.8-3.3,8.1"/>
	<path class="st1" d="M120.4,96.1c-6.1-0.5-11,3.4-16.4,5.2c-3.5,1.1-6.4,3.8-9.6,5.8"/>
	<path class="st1" d="M31.9,23.6c-8.9,6-17.2,12.6-24,21"/>
	<path class="st1" d="M87.4,7.6c-8.8,0.1-15.8,4.5-22.5,9.5"/>
	<path class="st1" d="M63.4,22.1c0.8,0,1.7,0,2.5,0"/>
	<path class="st1" d="M105.9,108.6c-3.1,2.3-5.9,4.9-9.5,6.5c-2.1,1-4.2,3.4-6.4,0.9c-1.9-2.1,0.5-4,1.4-5.9"/>
	<path class="st1" d="M119.4,99.6c-6.7,3.4-14.6,4-20.6,9.4c-1.4,1.3-3.2,2.4-4.9,3.6"/>
	<path class="st1" d="M51.9,51.1c0.1,3.4-1.4,5.9-4,8c-3,2.5-5.7,5.3-8.5,8"/>
	<path class="st1" d="M126.9,58.1c2.2,2.9,0.9,5.3-2,5.8c-2.8,0.5-4.6,2.8-7.5,2.7"/>
	<path class="st1" d="M51.4,102.1c-1.7,3-1.6,6,0,9"/>
	<path class="st1" d="M57.4,4.1c-3.2,2.5-7.4,3.8-9,8"/>
	<path class="st1" d="M52.4,36.1c-2.8,2.2-5.9,1.8-9,1"/>
</g>
</svg>
