<?xml version="1.0" encoding="utf-8"?>
<!-- Generator: Adobe Illustrator 22.0.1, SVG Export Plug-In . SVG Version: 6.00 Build 0)  -->
<svg version="1.1" id="Lager_1" xmlns="http://www.w3.org/2000/svg" xmlns:xlink="http://www.w3.org/1999/xlink" x="0px" y="0px"
	 viewBox="0 0 163.7 163.5" style="enable-background:new 0 0 163.7 163.5;" xml:space="preserve">
<style type="text/css">
	.st0{fill:#FFFFFF;}
	.st1{fill:none;stroke:#000000;stroke-width:2;stroke-linecap:round;stroke-linejoin:round;stroke-miterlimit:10;}
</style>
<g>
	<path class="st0" d="M163.7,80.8c1.5,42.7-34.2,81-77,82.7c-46.6,1.8-84.5-32.7-86.6-78.1C-2.1,39.3,36,2.7,75.6,0.2
		C125.6-2.9,164,37.1,163.7,80.8z M68.7,134.7c6.7,0.4,13.3-0.9,19.8-2c18.6-3,36.2-8.6,51.8-19.5c2.7-1.9,5.6-4.8,8.5-5
		c8.6-0.6,9.8-6.3,10.6-12.9c0.4-3.8,0.7-7.6,1.2-11.4c0.4-3.7-0.9-4.7-4.6-3.8c-8.9,2.2-17.8,4.2-26.7,6.1
		c-6.7,1.4-12.8,3.7-19,7.1c-14.6,7.9-30.6,11-47.2,9.6c-3.4-0.3-6.6-0.3-9.9,0.5c-13.3,3-26.5,6.1-39.9,9.1c-2.6,0.6-3.5,1.5-2.1,4
		c3.7,6.9,8.2,13.3,13.6,19c1,1.1,2.2,2.2,3.9,1.6C41.8,132.9,55.2,132.8,68.7,134.7z M3.4,79.8C3.5,79.8,3.5,79.8,3.4,79.8
		c0,1.3,0.1,2.7,0,4c-0.2,3.9,1,5.2,5.3,4.1c8-2.2,16.3-3.4,24.3-5.6c6-1.6,12.8-1.3,18-5.2c14.8-10.9,31.6-15,49.6-15.6
		c5.6-0.2,11,2.4,16.3,1.5c11.9-2.2,23.7-5.3,35.5-7.8c2.9-0.6,2.8-1.8,1.8-4.2c-2.3-5.4-5.3-10.3-8.6-15.2
		c-1.8-2.7-3.8-3.1-6.8-2.3c-6.6,1.7-13,3.4-20.1,2.3c-31.1-4.9-60.2,1.1-87.3,17c-3.7,2.2-7.5,4.2-11.8,5.3C3.9,62,3.9,62,3.2,78.3
		C3.4,78.8,3.4,79.3,3.4,79.8z M141.3,30.6c-5.6-6.7-12.1-11.7-19.1-16.3c-3.2-2.1-6.5-3-10.3-3C85,11.1,59.2,16.8,33.6,25.1
		C17.7,30.3,12.8,43.5,7.2,56.6c-0.8,1.9,0,2.8,2.2,2.2c8-2.3,15.9-4.2,23.3-8.6c24.6-14.6,51.5-20.7,80-17.2
		C122.4,34.3,131.5,34.6,141.3,30.6z M59.8,154.5c21.8-0.7,41-5.1,60.3-9.6c18.5-4.3,27.4-17.4,34.6-32.9c1.1-2.5,0.8-3.2-2.2-2.9
		c-4.2,0.5-7.4,2.9-10.6,5.1C115.9,131.8,87,138,56,135.5c-8.3-0.7-16.2,1.1-24.2,2.8c-2.3,0.5-3,1.4-0.8,3.1
		C40,148.6,48.8,156.3,59.8,154.5z M67.1,95.8c14.8-0.3,29.4-3.2,42.6-11.6c1.7-1.1,3.6-1.7,5.5-2.1c12.5-2.9,24.9-5.7,37.5-8.4
		c7.6-1.6,7.8-1.9,5.9-9.3c-0.6-2.5-1.8-3.3-4.2-2.7c-7.3,1.7-14.5,3.6-21.9,5c-9.5,1.7-18.5,4.8-28.8,3.5
		c-17.2-2.1-33.7,2-48.1,12.5c-2.1,1.5-4.2,2.5-6.7,3.1c-12.5,2.8-25,5.6-37.5,8.4c-7.4,1.6-7.9,2.5-5.2,9.5c0.8,2,1.7,2.9,4.1,2.3
		c7.6-1.9,15.1-3.9,22.8-5.3C44.2,98.7,54.8,93.7,67.1,95.8z M71,101.8c14.6-1,29-4.2,42-11.8c3.4-2,6.7-3.5,10.5-4.3
		c11.2-2.4,22.4-5,33.6-7.4c1.6-0.3,3.3-0.7,2.9-2.7c-0.5-2.4-2.3-1.1-3.6-0.8c-10.6,2.3-21.2,4.5-31.6,7.1
		c-5.1,1.3-10.6,1.6-15.2,4.5c-14.9,9.2-31.2,12-48.3,10.7c-2-0.2-4,0-5.9,0.4c-13.8,3.1-27.6,6.2-41.3,9.5c-1.9,0.5-5.9-0.1-5.1,3
		c0.8,3,4,0.7,6,0.4C33.4,107.4,51.1,98.8,71,101.8z M111.4,9.7c-21.9-12.9-68-4.2-82.1,15.1C55.9,15.3,82.5,9.5,111.4,9.7z
		 M99.7,63.3c-16.5,0.9-32.3,4.3-46,14.1c-2.9,2.1-5.8,3.5-9.3,4.2c-12.5,2.7-25,5.6-37.4,8.5c-1.2,0.3-3.1,0.3-2.6,2.2
		c0.5,1.9,2.1,1,3.3,0.7c9.1-2,18.2-3.9,27.2-6.2c6.2-1.6,13.2-1.4,18.6-5.2c17.1-11.9,35.8-16.2,56.3-12.8c1.3,0.2,2.7,0.2,3.9-0.1
		c13.5-3,26.9-6.1,40.4-9.1c1.1-0.2,2.7-0.1,2.5-1.7c-0.2-2-1.9-1.5-3.1-1.2c-5.4,1.2-10.6,2.8-16,3.7c-9.2,1.4-18,6.3-27.8,3.7
		C106.4,63.4,103.1,63.3,99.7,63.3z M59.8,156.6c23.9,8.4,55.5,0.8,68.2-12.6c-11.5,4.1-22.6,6.6-33.8,8.7
		C82.8,154.9,71.3,155.9,59.8,156.6z"/>
	<path d="M68.7,134.7c-13.5-1.9-26.9-1.7-40,2.5c-1.7,0.6-2.9-0.5-3.9-1.6c-5.4-5.7-9.9-12.1-13.6-19c-1.4-2.6-0.5-3.4,2.1-4
		c13.3-2.9,26.6-6,39.9-9.1c3.3-0.7,6.5-0.8,9.9-0.5c16.6,1.4,32.6-1.7,47.2-9.6c6.1-3.3,12.3-5.6,19-7.1c8.9-1.9,17.9-3.9,26.7-6.1
		c3.7-0.9,5,0.1,4.6,3.8c-0.4,3.8-0.7,7.6-1.2,11.4c-0.7,6.5-2,12.3-10.6,12.9c-2.9,0.2-5.8,3.1-8.5,5
		c-15.6,10.9-33.2,16.4-51.8,19.5C81.9,133.8,75.4,135.1,68.7,134.7z"/>
	<path d="M3.4,79.8c0-0.5,0-1,0-1.5C4.1,62,4.1,62,19.8,58.1c4.3-1.1,8.1-3.1,11.8-5.3c27.1-15.9,56.2-21.9,87.3-17
		c7.1,1.1,13.5-0.6,20.1-2.3c2.9-0.8,4.9-0.4,6.8,2.3c3.3,4.8,6.3,9.8,8.6,15.2c1,2.4,1.1,3.5-1.8,4.2c-11.9,2.6-23.6,5.7-35.5,7.8
		c-5.3,1-10.7-1.6-16.3-1.5C82.8,62,66,66.2,51.2,77.1c-5.3,3.9-12,3.6-18,5.2c-8,2.2-16.3,3.4-24.3,5.6c-4.3,1.2-5.4-0.2-5.3-4.1
		C3.5,82.5,3.5,81.2,3.4,79.8C3.5,79.8,3.5,79.8,3.4,79.8z"/>
	<path d="M141.3,30.6c-9.8,4-19,3.7-28.6,2.5c-28.5-3.5-55.3,2.6-80,17.2c-7.4,4.4-15.3,6.3-23.3,8.6c-2.2,0.6-3-0.3-2.2-2.2
		c5.6-13.1,10.5-26.3,26.4-31.5c25.5-8.4,51.3-14,78.3-13.8c3.8,0,7.1,0.9,10.3,3C129.2,19,135.7,24,141.3,30.6z"/>
	<path d="M59.8,154.5c-11,1.8-19.8-5.9-28.8-13.1c-2.1-1.7-1.5-2.6,0.8-3.1c8-1.7,15.9-3.4,24.2-2.8c31,2.5,59.8-3.7,85.9-21.3
		c3.3-2.2,6.4-4.6,10.6-5.1c3-0.4,3.3,0.4,2.2,2.9c-7.2,15.5-16,28.6-34.6,32.9C100.8,149.4,81.6,153.8,59.8,154.5z"/>
	<path d="M67.1,95.8c-12.2-2.1-22.8,2.9-33.9,4.9c-7.7,1.4-15.2,3.4-22.8,5.3c-2.4,0.6-3.3-0.3-4.1-2.3c-2.7-7-2.2-7.9,5.2-9.5
		c12.5-2.8,25-5.6,37.5-8.4c2.5-0.5,4.6-1.6,6.7-3.1c14.4-10.5,30.9-14.6,48.1-12.5c10.3,1.3,19.3-1.8,28.8-3.5
		c7.3-1.3,14.6-3.3,21.9-5c2.4-0.6,3.6,0.1,4.2,2.7c1.9,7.5,1.7,7.7-5.9,9.3c-12.5,2.7-25,5.5-37.5,8.4c-1.9,0.4-3.8,1-5.5,2.1
		C96.5,92.6,81.8,95.5,67.1,95.8z M70.6,88.8c8.5-1,17.3-2.6,25.8-5.7c2.2-0.8,4.4-1.4,6.2-3c0.8-0.8,2.1-1.3,1.5-2.8
		c-0.5-1.1-1.6-1-2.6-1c-3.5,0.1-7-0.1-10.4,0.4c-8.5,1.3-17,3-24.7,7.3c-1.1,0.6-2.6,1.3-2.1,2.9c0.4,1.2,1.8,1.4,2.9,1.6
		C68.2,88.7,69.2,88.7,70.6,88.8z"/>
	<path d="M71,101.8c-19.9-3-37.5,5.6-56.1,8.5c-2.1,0.3-5.3,2.7-6-0.4c-0.8-3.1,3.2-2.5,5.1-3c13.7-3.3,27.5-6.4,41.3-9.5
		c2-0.4,3.9-0.6,5.9-0.4c17.2,1.3,33.5-1.5,48.3-10.7c4.7-2.9,10.1-3.2,15.2-4.5c10.5-2.6,21.1-4.8,31.6-7.1
		c1.3-0.3,3.2-1.5,3.6,0.8c0.4,1.9-1.3,2.3-2.9,2.7c-11.2,2.5-22.4,5.1-33.6,7.4c-3.8,0.8-7.1,2.3-10.5,4.3
		C100,97.6,85.6,100.8,71,101.8z"/>
	<path d="M111.4,9.7c-29-0.2-55.6,5.6-82.1,15.1C43.4,5.4,89.5-3.2,111.4,9.7z"/>
	<path d="M99.7,63.3c3.4,0,6.7,0,10,0.9c9.8,2.5,18.5-2.3,27.8-3.7c5.4-0.8,10.7-2.5,16-3.7c1.3-0.3,2.9-0.8,3.1,1.2
		c0.2,1.6-1.4,1.5-2.5,1.7c-13.5,3-26.9,6.1-40.4,9.1c-1.3,0.3-2.7,0.3-3.9,0.1c-20.5-3.4-39.2,0.8-56.3,12.8
		c-5.4,3.8-12.4,3.6-18.6,5.2c-9,2.3-18.1,4.2-27.2,6.2c-1.2,0.3-2.8,1.2-3.3-0.7c-0.5-2,1.4-2,2.6-2.2c12.5-2.9,24.9-5.8,37.4-8.5
		c3.5-0.8,6.4-2.1,9.3-4.2C67.5,67.6,83.2,64.2,99.7,63.3z"/>
	<path d="M59.8,156.6c11.5-0.8,23-1.8,34.4-3.9c11.2-2.1,22.4-4.6,33.8-8.7C115.3,157.4,83.6,165.1,59.8,156.6z"/>
	<path class="st0" d="M70.6,88.8c-1.4-0.1-2.4-0.1-3.4-0.3c-1.1-0.2-2.5-0.3-2.9-1.6c-0.5-1.7,1-2.3,2.1-2.9
		c7.7-4.2,16.1-5.9,24.7-7.3c3.4-0.5,7-0.3,10.4-0.4c1,0,2.1-0.1,2.6,1c0.6,1.5-0.7,2-1.5,2.8c-1.8,1.7-4,2.3-6.2,3
		C87.9,86.2,79.1,87.9,70.6,88.8z M100.3,78.6c-11.6-0.7-22.4,2.2-32.6,7.7C79.2,86.5,90.1,83.9,100.3,78.6z"/>
	<path d="M100.3,78.6c-10.3,5.3-21.1,7.8-32.6,7.7C77.9,80.8,88.7,77.9,100.3,78.6z"/>
	<path class="st1" d="M158.8,74.1c0.6,3-2.1,2.6-3.5,2.9c-12.3,2.8-24.7,5.3-37,8.1c-6.9,1.5-12.2,6.4-18.9,8.7
		c-13,4.3-25.8,6.8-39.6,5.1c-5.8-0.7-12,1.9-18,3.2c-10.5,2.4-21,5-31.5,7.5"/>
	<path class="st1" d="M156.8,58.1c-6.2,0.6-12,2.9-18,3.9c-10,1.5-19.5,6.4-30,4.6c-16.4-2.8-31.7,1-46.5,7.6c-1.8,0.8-3.5,1.8-5,3
		c-8.7,7.4-19.9,7.1-30,9.9C20.2,89,13,90.5,5.8,92.2"/>
	<path class="st1" d="M110.8,9.1c-5.8-0.7-11.7-1.3-17.5-2"/>
	<path class="st1" d="M41.3,18.1c-4.3,1-7.7,3.9-11.5,6"/>
	<path class="st1" d="M127.8,144.1c-5.9,4.6-12.9,6.7-20,8.5"/>
	<path class="st1" d="M78.3,157.8c-6.5-0.3-13-0.5-19.5-0.8"/>
	<path class="st1" d="M100.8,78.6c-10.2,2.3-20.3,4.7-30.5,7c-1,0.2-1.8,0.4-2,1.5"/>
	<path class="st1" d="M142.3,33.1c0,1.9,0.3,3.8-1,5.5"/>
</g>
</svg>
