<?xml version="1.0" encoding="utf-8"?>
<!-- Generator: Adobe Illustrator 22.0.1, SVG Export Plug-In . SVG Version: 6.00 Build 0)  -->
<svg version="1.1" id="Lager_1" xmlns="http://www.w3.org/2000/svg" xmlns:xlink="http://www.w3.org/1999/xlink" x="0px" y="0px"
	 viewBox="0 0 96.8 96.6" style="enable-background:new 0 0 96.8 96.6;" xml:space="preserve">
<style type="text/css">
	.st0{fill:#FFFFFF;}
	.st1{fill:none;stroke:#000000;stroke-width:2;stroke-linecap:round;stroke-linejoin:round;stroke-miterlimit:10;}
</style>
<g>
	<path class="st0" d="M96.7,47.6c0.4,25.8-20.8,47.8-45.6,49C22,98,0.5,73.4,0,50C-0.7,18.8,26.1,1.2,45.8,0.1
		C75.1-1.5,98.2,24.3,96.7,47.6z M48.1,93.2c6.8,0.2,13.3-1,19.4-4c2.5-1.3,6.9-1.9,6.5-5.1c-0.3-2.7-4.3-3.8-7.2-4.4
		c-4.9-1-7.2-3.7-7.4-9c-0.2-8.7-2-10.4-10.5-12.6c-1.1-0.3-2.3-0.6-3.4-0.9c-6.6-2-10.8-6.8-10.5-13.4c0.2-5-1.7-8.2-5.5-10.9
		c-3.7-2.7-4.7-6.3-2.9-10.6c1.2-2.7,1.2-5.5,1-8.3c-0.3-4.1-1.7-4.9-4.9-2.5c-7.1,5.3-12.7,11.8-16.1,20c-0.5,1.3-1,2.4-0.4,3.8
		C9,41,11.3,47.1,15.6,51.9c4.7,5.2,8.5,10.6,9.2,17.8c0.3,2.9,2.1,4.7,5,5.6c3.5,1.1,6.3,3.1,6.6,7.2
		C37.2,92.5,37.9,93.2,48.1,93.2z M48,3.3c-2.4,0.2-5.1,0.3-7.7,0.6C35,4.6,34,7.1,37.2,11.6c1,1.4,2.3,2.5,3.8,3.1
		c6.1,2.5,8.6,6.6,7.4,13.4c-0.6,3.7-0.7,8.4,3.8,9.8c7.9,2.5,10.7,8.2,11.7,15.6c0.2,1.8,0.1,4.2,1.8,5c6.4,2.9,8.8,7.8,9.3,14.5
		c0.2,2.4,2.6,4.7,5.5,5.1c2.6,0.3,3.5-2.2,4.8-3.8c2.6-3.3,4.3-7.1,5.7-11c0.9-2.6,1.6-5.1-1.9-6.5c-2.3-1-3.4-3.3-3.5-5.7
		c-0.1-3.8-2-6.3-5.3-7.7c-5.1-2-6.7-5.5-5.6-10.7c1.1-5.7-0.6-10.4-5.1-14.2c-1.7-1.4-2.8-3.1-3.3-5.4c-2-8.2-2.1-8.2-10.4-9.3
		C53.3,3.5,50.8,3.5,48,3.3z M46.6,27.2c1.6-5.2-1.4-8.6-6.5-11.1c-3.1-1.5-5.5-3.8-6.2-7.4c-0.3-1.5-0.6-3.3-2.7-2.3
		c-1.5,0.7-3.8,1-2.4,4.2c1.5,3.5,1.3,7.6-0.1,11.2c-1.9,4.8-0.5,8,3.4,10.7c2.7,1.9,4.4,4.4,4.7,7.8c0.9,10.9,2.7,13.1,13.5,15.9
		c7.7,2,10.2,4.2,10.6,11.7c0.3,6.2,2.3,9.6,8.7,10.3c1.9,0.2,3.8,1.9,5.5,3.2c1.3,1,2.2,1.3,3.4,0.1c1.5-1.6,0-2.4-1-3
		c-3.6-2.3-5.1-5.4-5.1-9.6c0-2.9-1.3-5.7-4.3-6.8c-4.5-1.6-5.6-5-6.1-9.3c-0.6-5.3-2.7-10-8-12.4C47.1,37.5,46.2,36,46.6,27.2z
		 M34.9,90.5c0.7-1.4-0.7-2.6-0.5-3.9c0.8-5.5-1.3-8.9-6.9-10.2c-2.5-0.6-3.8-3-4.1-5.3C22,57.6,9.3,50.7,5.6,37.6
		c-3.5,7.6-0.3,11.9,3.8,15.9C13,57,14.9,60.9,13.9,66c-0.7,3.7,0.8,6.1,4.2,7.4c2.9,1.1,6.1,2.9,6.2,5.9
		C24.5,86.6,29.4,88.6,34.9,90.5z M75.6,23c1.6,4.6,1,8,0.6,11.5c-0.3,2.2-0.2,4.9,2,5.7c6,2.2,9,6.2,9.8,12.5
		c0.1,1.1,1.6,2.1,2.5,2.9c0.6,0.6,1.5,0.6,2.2-0.2c1.6-1.8,0.7-9.6-1.4-10.3c-4.2-1.3-5.3-4.4-6.2-8.2C84,31.6,82.9,26.1,75.6,23z
		 M4.2,50C3.2,62.8,12,78.7,23,84.4c0.7-4.8-1.6-7.6-5.6-9.3c-3.3-1.4-6.1-3.6-5.2-7.5C13.8,59.9,8.9,55.6,4.2,50z M73.6,11.5
		c2.7,3,1.7,8,5.1,10.2c5.4,3.6,7.2,8.9,8.4,14.7c0.4,2.1,0.6,4.4,2.6,5.7c0.8,0.5,1.7,1.2,2.7,0.7c1.1-0.6,0.8-1.7,0.7-2.6
		C90.7,27.8,83.8,18.5,73.6,11.5z M67.5,7c0.4,7.8,1.7,9.9,7.1,12.3C73.6,14.6,70.2,11.8,67.5,7z"/>
	<path d="M48.1,93.2c-10.2,0-10.9-0.7-11.6-10.7c-0.3-4.1-3.1-6.1-6.6-7.2c-2.9-0.9-4.7-2.7-5-5.6c-0.7-7.2-4.5-12.6-9.2-17.8
		C11.4,47.1,9.1,41,6.3,35.3c-0.7-1.4-0.2-2.6,0.4-3.8c3.5-8.2,9.1-14.7,16.1-20c3.2-2.4,4.6-1.7,4.9,2.5c0.2,2.8,0.1,5.6-1,8.3
		c-1.8,4.2-0.8,7.9,2.9,10.6c3.7,2.7,5.7,5.9,5.5,10.9c-0.3,6.6,3.9,11.4,10.5,13.4c1.1,0.3,2.2,0.6,3.4,0.9
		c8.5,2.2,10.3,3.9,10.5,12.6c0.1,5.3,2.4,8,7.4,9c3,0.6,6.9,1.7,7.2,4.4c0.4,3.2-4,3.8-6.5,5.1C61.4,92.2,54.9,93.4,48.1,93.2z"/>
	<path d="M48,3.3c2.7,0.2,5.2,0.2,7.7,0.5c8.3,1.1,8.4,1.1,10.4,9.3c0.6,2.3,1.7,4,3.3,5.4c4.5,3.8,6.3,8.5,5.1,14.2
		c-1,5.1,0.6,8.7,5.6,10.7c3.3,1.3,5.2,3.9,5.3,7.7c0.1,2.4,1.2,4.7,3.5,5.7c3.5,1.5,2.9,4,1.9,6.5c-1.4,3.9-3.1,7.7-5.7,11
		c-1.3,1.6-2.1,4.1-4.8,3.8c-2.9-0.4-5.4-2.7-5.5-5.1c-0.5-6.7-2.8-11.7-9.3-14.5c-1.7-0.7-1.6-3.2-1.8-5c-1-7.4-3.8-13.1-11.7-15.6
		c-4.5-1.4-4.5-6.1-3.8-9.8c1.2-6.7-1.3-10.9-7.4-13.4C39.2,14.1,38,13,37,11.6c-3.2-4.4-2.2-6.9,3.1-7.7C43,3.6,45.6,3.5,48,3.3z"
		/>
	<path d="M46.6,27.2C46.2,36,47.1,37.5,54,40.7c5.2,2.4,7.4,7.1,8,12.4c0.5,4.3,1.6,7.7,6.1,9.3c3,1.1,4.3,3.9,4.3,6.8
		c0,4.2,1.5,7.4,5.1,9.6c1,0.7,2.6,1.4,1,3c-1.2,1.2-2.1,1-3.4-0.1c-1.7-1.3-3.6-3-5.5-3.2c-6.4-0.8-8.4-4.2-8.7-10.3
		c-0.4-7.6-2.9-9.7-10.6-11.7c-10.8-2.8-12.6-5-13.5-15.9c-0.3-3.4-2-5.9-4.7-7.8c-3.9-2.7-5.4-6-3.4-10.7c1.5-3.6,1.7-7.7,0.1-11.2
		c-1.4-3.2,0.8-3.5,2.4-4.2c2.1-1,2.4,0.8,2.7,2.3c0.7,3.6,3.1,5.9,6.2,7.4C45.2,18.6,48.2,22,46.6,27.2z"/>
	<path d="M34.9,90.5c-5.5-1.8-10.4-3.9-10.6-11.2c-0.1-3-3.2-4.8-6.2-5.9c-3.5-1.3-5-3.8-4.2-7.4c1-5.1-0.9-9-4.5-12.5
		c-4.1-3.9-7.3-8.3-3.8-15.9C9.3,50.7,22,57.7,23.4,71.1c0.2,2.3,1.6,4.7,4.1,5.3c5.6,1.3,7.7,4.7,6.9,10.2
		C34.2,87.9,35.6,89,34.9,90.5z"/>
	<path d="M75.6,23c7.3,3.1,8.3,8.6,9.6,13.9c0.9,3.8,2,6.9,6.2,8.2c2.2,0.7,3.1,8.5,1.4,10.3c-0.7,0.8-1.6,0.7-2.2,0.2
		c-1-0.9-2.4-1.9-2.5-2.9c-0.8-6.2-3.8-10.3-9.8-12.5c-2.2-0.8-2.3-3.5-2-5.7C76.6,31,77.2,27.6,75.6,23z"/>
	<path d="M4.2,50c4.8,5.5,9.7,9.9,7.9,17.5c-0.9,3.9,2,6,5.2,7.5c4,1.8,6.3,4.6,5.6,9.3C12,78.7,3.2,62.9,4.2,50z"/>
	<path d="M73.6,11.5c10.2,7,17.1,16.3,19.4,28.6c0.2,1,0.5,2.1-0.7,2.6c-1,0.5-1.9-0.2-2.7-0.7c-2-1.3-2.2-3.6-2.6-5.7
		c-1.2-5.8-3-11.1-8.4-14.7C75.3,19.5,76.3,14.5,73.6,11.5z"/>
	<path d="M67.5,7c2.8,4.8,6.1,7.6,7.1,12.3C69.2,17,67.8,14.8,67.5,7z"/>
	<path class="st1" d="M6.5,45c1.1,3.6,3.3,6.5,6,9c2.5,2.3,3.8,5.4,5,8.5"/>
	<path class="st1" d="M21,71.5c1.3,3.4,4.2,5.5,6.5,8"/>
	<path class="st1" d="M4,50.5c1.2,2.7,2.3,5.3,3.5,8"/>
	<path class="st1" d="M9.8,65c-0.5,4.9,2.4,8.2,5.8,11c3,2.4,5.6,4.9,7,8.5"/>
	<path class="st1" d="M83,40c4.4,4.3,8.6,8.7,8.5,15.5"/>
	<path class="st1" d="M73,11.5c7.5,7.6,14.7,15.3,16.9,26.3c0.3,1.6,1,2.7,2.1,3.7"/>
	<path class="st1" d="M67.5,9c2,3.5,4,7,6,10.5"/>
	<path class="st1" d="M5,38.5c-0.7,2,2.6,4,0,6"/>
</g>
</svg>
