<?xml version="1.0" encoding="utf-8"?>
<!-- Generator: Adobe Illustrator 22.0.1, SVG Export Plug-In . SVG Version: 6.00 Build 0)  -->
<svg version="1.1" id="Lager_1" xmlns="http://www.w3.org/2000/svg" xmlns:xlink="http://www.w3.org/1999/xlink" x="0px" y="0px"
	 viewBox="0 0 224.3 174.6" style="enable-background:new 0 0 224.3 174.6;" xml:space="preserve">
<style type="text/css">
	.st0{fill:#FFFFFF;}
	.st1{fill:none;stroke:#000000;stroke-width:2;stroke-linecap:round;stroke-linejoin:round;stroke-miterlimit:10;}
</style>
<g>
	<path class="st0" d="M108.5,156.4c-7.7,0.3-15.3-0.6-22.6-3.4c-2.5-1-4.4-0.1-6.6,1c-14.2,7.5-28.8,13.8-44.2,18.2
		c-5.1,1.4-10.3,2.4-15.7,2.4c-15.7-0.1-22.9-10.3-17.7-25.3c2.8-8,7.1-15.1,11.9-21.8c6.2-8.6,12.8-17,20.3-24.7
		c2.1-2.2,2.6-4.1,2.1-7.1c-7.4-45.1,22.4-73.8,48.9-82.2c18.9-6,37.8-4.9,55.9,3.7c2.8,1.4,5.1,1.4,7.9,0
		C163.2,9.9,178,3.5,194.1,0.7c4.3-0.8,8.6-0.9,12.9-0.4c10.3,1.2,15.5,8.2,14.2,18.5c-1.1,8.3-5,15.4-9.4,22.3
		c-7.5,11.8-16.5,22.6-26.2,32.7c-2.9,3-4,6-4,10.1c-0.3,35.8-26.3,66-61.6,71.8C116.1,156.3,112.3,156.5,108.5,156.4z M209.5,24.8
		c0.3-7-2-11.6-6.7-12.3c-7.6-1.1-14.8,0.7-21.7,4.1c5.5-0.7,10.9-2.4,16.6-2.2c4.6,0.2,8.1,1.7,9.7,6.3
		C207.9,22.2,208.9,23.4,209.5,24.8c0.2,1.6-0.2,3.1-0.9,4.7c-6.2,13.6-15.9,24.5-25.9,35.3c-1.2,1.3-2.9,2.4-2.9,4.5
		c0,1.3-0.4,2.9,1,3.6s1.9-0.9,2.7-1.7c9.6-10,18.6-20.5,25.9-32.2c4.1-6.5,7.9-13.2,8.5-21.1c0.7-9.3-3.6-14.1-13-14.4
		c-5.7-0.2-11.3,0.5-16.8,2c-24.9,6.9-48,17.8-69.7,31.7c-35.5,22.7-68.3,48.7-94.6,82c-4.5,5.6-8.8,11.3-12.5,17.4
		c-3.4,5.6-6.4,11.3-7.7,17.8c-2,10.3,3,16.6,13.4,16.8c3.3,0.1,6.6-0.1,9.9-0.7c17.3-3.6,33.3-10.5,49-18.3
		c0.9-0.5,2.7-0.7,2.2-2.1c-0.3-0.8-1.8-1.4-2.8-1.8c-1.5-0.6-2.8,0.1-4.2,0.9c-5.4,2.9-10.8,6-16.4,8.5
		c-10.3,4.6-20.8,8.9-32.5,8.6c-7.8-0.2-11.8-5.6-10-13.2c1-4.2,2.8-8.2,5.1-11.9c4-6.6,8.6-12.6,13.6-18.5
		c20-23.9,43.8-43.7,68.8-62.1c23.4-17.2,47.5-33,74.5-44c8.6-3.5,17.4-6.7,27-6.1C209.2,10.9,213.1,17.6,209.5,24.8z M103.7,62.6
		c-0.1-1.7,1.4-2.2,2.4-2.9c13.5-9.7,27.3-18.9,41.8-27c1.4-0.8,2.7-1.6,4.1-2.5C136.8,35.5,88.9,68.1,82.8,77c2.7-2,4.3-3.3,6-4.4
		c5-3.3,9-8.2,15-10.2c-0.1,1.4-1.3,1.8-2.2,2.5c-11.1,8.3-21.9,16.9-32.3,26c-15.5,13.5-30.1,27.7-42.2,44.4
		c-3.4,4.7-6.5,9.6-8.2,15.3c-1.9,6.4,1,10.5,7.8,10.7c1.6,0,3.3-0.1,5-0.4c12.8-2.2,24.3-7.9,35.8-13.6c2.9-1.4,2.3-2.4,0.2-4.1
		c-2-1.5-3.5-1-5.4,0c-5,2.6-10.2,5.1-15.8,6.1c-3,0.6-6.5,1.4-8.8-1.7s-0.4-6.1,1.1-8.8c4.6-8.6,11.5-15.5,18.3-22.4
		c24.1-24.2,51.3-44.4,79.8-63c12.7-8.3,25.8-15.9,40.2-20.8c4-1.4,9.1-3.9,12.4,0.7c3.2,4.5-0.8,8.5-3,12.2
		c-2.2,3.5-4.9,6.7-7.8,9.8c-2.4,2.6-1.7,5.4,0.2,7.1c1.8,1.6,2.8-1.4,3.9-2.6c5.6-6,11-12.1,15.5-18.9c3.2-4.8,6.6-9.6,7.3-15.6
		s-1.5-8.9-7.5-9.1c-5.9-0.2-11.6,1.4-17,3.4c-19.2,7-36.7,17.1-54,27.8C119,52.3,112,58.4,103.7,62.6z M115.2,153.2
		c21-0.4,42.3-13.2,55-37.6c12.4-23.8,12.4-48.5-2.8-72c-1.8-2.8-3.1-3.7-6.6-1.9c-20.5,10.6-39.4,23.5-57.6,37.4
		c-17.2,13.1-33.8,27-48.8,42.7c-2.7,2.9-2.4,4.6,0.1,7.4C68.6,145.5,86.7,153.1,115.2,153.2z M38.1,83c0.1,2.8,0.2,5.7,0.5,8.5
		c0.2,1.6-0.3,3.8,1.3,4.6c1.9,0.8,2.7-1.5,3.8-2.5c28.3-27,59.4-50.2,93.4-69.6c1.2-0.7,3.4-0.9,3.3-2.6c-0.1-1.9-2.4-2-3.8-2.6
		C84.1-2,37.3,37.2,38.1,83z M43.8,148c5.7-0.9,11.7-3.8,17.7-6.7c1.8-0.9,0.7-2-0.1-2.7c-3.6-3-6.8-6.4-9.8-10
		c-1.1-1.3-2.2-1.6-3.3-0.2c-3.7,4.3-7.5,8.6-9.6,13.9C37.2,146,38.8,148.1,43.8,148z M183.8,32.9c-5.2,0.7-10.4,3-15.5,5.2
		c-1.6,0.7-1.7,1.7-0.6,3.2c2.7,3.6,5,7.4,6.8,11.6c0.6,1.3,1.7,2.3,3,0.7c4-4.7,8.4-9.1,10.5-15C189.2,35.2,188.4,33,183.8,32.9z
		 M22.1,138.2c-4.4,5.2-7.3,11.3-8,16.1c-1,6.9,4.7,12.1,10.7,9.9C14.9,159.3,13.3,155.9,22.1,138.2z"/>
	<path d="M115.2,153.2c-28.5-0.1-46.5-7.7-60.8-24c-2.4-2.8-2.8-4.5-0.1-7.4c15-15.7,31.6-29.5,48.8-42.7
		c18.3-13.9,37.2-26.9,57.6-37.4c3.6-1.8,4.9-0.9,6.6,1.9c15.3,23.5,15.2,48.2,2.8,72C157.5,140,136.2,152.8,115.2,153.2z"/>
	<path d="M38.1,83c-0.8-45.8,46-85,98.5-64.3c1.4,0.6,3.7,0.7,3.8,2.6c0.1,1.7-2.1,1.9-3.3,2.6c-34,19.4-65,42.6-93.4,69.6
		c-1.1,1.1-2,3.4-3.8,2.5c-1.6-0.7-1.1-3-1.3-4.6C38.3,88.7,38.3,85.9,38.1,83z"/>
	<path d="M103.7,62.7c8.3-4.2,15.4-10.3,23.3-15.2c17.2-10.7,34.8-20.9,54-27.8c5.5-2,11.1-3.5,17-3.4c6,0.2,8.2,3.1,7.5,9.1
		c-0.7,6.1-4.1,10.8-7.3,15.6c-4.5,6.8-10,12.9-15.5,18.9c-1.1,1.1-2.1,4.2-3.9,2.6c-1.9-1.6-2.6-4.4-0.2-7.1c2.8-3,5.6-6.3,7.8-9.8
		c2.3-3.7,6.2-7.7,3-12.2c-3.3-4.6-8.4-2.1-12.4-0.7c-14.4,4.9-27.6,12.5-40.2,20.8c-28.5,18.6-55.7,38.8-79.8,63
		c-6.8,6.8-13.6,13.7-18.3,22.4c-1.5,2.7-3.3,5.7-1.1,8.8c2.3,3.1,5.8,2.2,8.8,1.7c5.6-1.1,10.8-3.5,15.8-6.1c1.9-1,3.5-1.5,5.4,0
		c2.1,1.7,2.7,2.7-0.2,4.1c-11.5,5.6-23,11.4-35.8,13.6c-1.6,0.3-3.3,0.4-5,0.4c-6.7-0.2-9.7-4.2-7.8-10.7
		c1.7-5.7,4.8-10.6,8.2-15.3c12.1-16.7,26.8-30.9,42.2-44.4c10.4-9.1,21.2-17.7,32.3-26c0.9-0.7,2.1-1.1,2.2-2.5V62.7z"/>
	<path d="M209.5,24.9c3.5-7.3-0.3-13.9-8.3-14.4c-9.6-0.6-18.4,2.6-27,6.1c-27,11-51.2,26.8-74.5,44C74.7,79,51,98.8,30.9,122.7
		c-4.9,5.9-9.6,11.9-13.6,18.5c-2.2,3.7-4,7.7-5.1,11.9c-1.8,7.5,2.2,13,10,13.2c11.6,0.3,22.2-4,32.5-8.6c5.6-2.5,11-5.6,16.4-8.5
		c1.4-0.7,2.7-1.5,4.2-0.9c1,0.4,2.5,0.9,2.8,1.8c0.6,1.5-1.2,1.7-2.2,2.1c-15.7,7.8-31.7,14.7-49,18.3c-3.3,0.7-6.6,0.8-9.9,0.7
		C6.6,171,1.6,164.7,3.6,154.4c1.2-6.5,4.3-12.2,7.7-17.8c3.7-6.1,8.1-11.8,12.5-17.4C50.2,85.9,83,60,118.4,37.2
		c21.7-13.9,44.8-24.8,69.7-31.7c5.5-1.5,11.1-2.2,16.8-2c9.3,0.3,13.7,5.2,13,14.4c-0.6,7.9-4.5,14.6-8.5,21.1
		C202,50.8,193,61.2,183.5,71.2c-0.7,0.8-1.3,2.4-2.7,1.7c-1.3-0.7-1-2.4-1-3.6c0-2.1,1.7-3.1,2.9-4.5c10-10.8,19.7-21.7,25.9-35.3
		c0.7-1.6,1.1-3.1,1-4.8L209.5,24.9z"/>
	<path d="M43.8,148c-5,0.1-6.6-2-5.1-5.7c2.2-5.3,6-9.6,9.6-13.9c1.1-1.3,2.2-1.1,3.3,0.2c3,3.6,6.1,7,9.8,10
		c0.9,0.7,1.9,1.8,0.1,2.7C55.5,144.2,49.5,147.1,43.8,148z"/>
	<path d="M183.8,32.9c4.5,0.1,5.4,2.3,4.2,5.7c-2.1,5.9-6.5,10.4-10.5,15c-1.4,1.6-2.4,0.6-3-0.7c-1.8-4.1-4.2-7.9-6.8-11.6
		c-1-1.4-0.9-2.5,0.6-3.2C173.5,35.9,178.7,33.6,183.8,32.9z"/>
	<path d="M103.8,62.5c-5.9,2-9.9,6.9-15,10.2c-1.7,1.2-3.4,2.5-6,4.4c6.2-8.9,54.1-41.5,69.2-46.8c-1.4,0.8-2.7,1.7-4.1,2.5
		c-14.6,8-28.3,17.3-41.8,27c-1,0.7-2.5,1.2-2.4,2.9C103.7,62.7,103.8,62.5,103.8,62.5z"/>
	<path d="M22.1,138.2c-8.8,17.7-7.2,21.2,2.7,26c-6,2.3-11.7-3-10.7-9.9C14.7,149.5,17.7,143.4,22.1,138.2z"/>
	<path d="M209.6,24.7c-0.7-1.3-1.7-2.5-2.2-3.9c-1.7-4.6-5.2-6.1-9.7-6.3c-5.7-0.3-11,1.5-16.6,2.2c6.8-3.4,14-5.2,21.7-4.1
		c4.8,0.7,7.1,5.2,6.7,12.3L209.6,24.7z"/>
	<path class="st1" d="M180.8,72.9c1.7-6,6.8-9.5,10.6-13.9c8.3-9.9,16.2-20.1,21.4-32.1"/>
	<path class="st1" d="M18.8,168.6c11.4,0.6,21.7-3.4,32-7.3c6.9-2.6,13.6-5.8,20-9.5c2.4-1.4,4.9-1.5,7.5-1.5"/>
	<path class="st1" d="M152.3,29.9c-19.5,9.6-37.1,22.1-54.5,35c-4.9,3.6-9.7,7.3-14.5,11"/>
	<path class="st1" d="M223.3,9.9c0,4.5,0,9,0,13.5"/>
	<path class="st1" d="M209.8,24.4c-0.7-2-1-4.2-2.1-6c-2.6-4.7-9.6-6.5-16.4-4.5c-3.7,1-7.3,2-11,3"/>
	<path class="st1" d="M21.8,138.4c-2.5,4.6-5.5,8.9-6.1,14.5c-0.8,7.7,1.5,10.7,9.6,11.5"/>
</g>
</svg>
